<svg width="168" height="55" viewBox="0 0 168 55" fill="none" xmlns="http://www.w3.org/2000/svg">
<path d="M26.2332 0.205566C23.1742 0.205566 20.145 0.808162 17.3188 1.97875C14.4925 3.14946 11.9247 4.86527 9.76149 7.02833C7.59842 9.19153 5.88262 11.7594 4.7119 14.5856C3.54132 17.4118 2.93872 20.4411 2.93872 23.5001C2.93872 26.5591 3.54132 29.5884 4.7119 32.4146C5.88262 35.2408 7.59842 37.8087 9.76149 39.9719C11.9247 42.1349 14.4925 43.8507 17.3188 45.0214C20.145 46.192 23.1742 46.7946 26.2332 46.7946V35.1474C24.7037 35.1474 23.1891 34.8461 21.776 34.2607C20.3629 33.6754 19.0789 32.8175 17.9974 31.736C16.9158 30.6544 16.0579 29.3704 15.4726 27.9573C14.8872 26.5442 14.586 25.0297 14.586 23.5001C14.586 21.9705 14.8872 20.456 15.4726 19.0429C16.0579 17.6297 16.9158 16.3457 17.9974 15.2642C19.0789 14.1827 20.3629 13.3248 21.776 12.7395C23.1891 12.1541 24.7037 11.8528 26.2332 11.8528V0.205566Z" fill="#C4C4C4"/>
<path d="M26.2332 31.2645C30.5216 31.2645 33.998 27.7881 33.998 23.4997C33.998 19.2112 30.5216 15.7349 26.2332 15.7349C21.9447 15.7349 18.4684 19.2112 18.4684 23.4997C18.4684 27.7881 21.9447 31.2645 26.2332 31.2645Z" fill="#C4C4C4"/>
<path d="M2.93872 23.5005C2.93872 26.5595 3.54132 29.5887 4.7119 32.415C5.88262 35.2412 7.59842 37.8091 9.76149 39.9722C11.9247 42.1353 14.4925 43.8511 17.3188 45.0218C20.145 46.1924 23.1742 46.795 26.2332 46.795C29.2923 46.795 32.3215 46.1924 35.1477 45.0218C37.974 43.8511 40.5418 42.1353 42.705 39.9722C44.8681 37.8091 46.5839 35.2412 47.7546 32.415C48.9252 29.5887 49.5278 26.5595 49.5278 23.5005H37.8805C37.8805 25.0301 37.5793 26.5446 36.9939 27.9577C36.4086 29.3708 35.5507 30.6548 34.4691 31.7364C33.3876 32.8179 32.1036 33.6758 30.6905 34.2611C29.2774 34.8465 27.7628 35.1478 26.2332 35.1478C24.7037 35.1478 23.1891 34.8465 21.776 34.2611C20.3629 33.6758 19.0789 32.8179 17.9974 31.7364C16.9158 30.6548 16.0579 29.3708 15.4726 27.9577C14.8872 26.5446 14.586 25.0301 14.586 23.5005H2.93872Z" fill="#C4C4C4"/>
<path d="M33.9981 23.4998C33.9981 21.4404 33.18 19.4654 31.7239 18.0092C30.2677 16.553 28.2927 15.7349 26.2333 15.7349C24.1739 15.7349 22.199 16.553 20.7427 18.0092C19.2865 19.4654 18.4684 21.4404 18.4684 23.4998H26.2333H33.9981Z" fill="#C4C4C4"/>
<path d="M61.6935 14.7485H58.8003V30.8218H61.6935V14.7485Z" fill="#C4C4C4"/>
<path d="M63.5828 25.1278C63.5828 28.8476 66.1545 31.1438 69.5528 31.1438C72.9512 31.1438 75.5229 28.8476 75.5229 25.1278C75.5229 21.408 72.9512 19.1118 69.5528 19.1118C66.1545 19.1118 63.5828 21.408 63.5828 25.1278ZM66.4759 25.1278C66.4759 22.9235 67.7618 21.6376 69.5528 21.6376C71.3438 21.6376 72.6297 22.9235 72.6297 25.1278C72.6297 27.3321 71.3438 28.618 69.5528 28.618C67.7618 28.618 66.4759 27.3321 66.4759 25.1278Z" fill="#C4C4C4"/>
<path d="M85.8619 19.4333V20.9717H85.6323C84.9434 19.9844 83.8413 19.1118 81.8666 19.1118C79.1571 19.1118 76.7231 21.408 76.7231 24.9441C76.7231 28.4802 79.1571 30.7764 81.8666 30.7764C83.8413 30.7764 84.9434 29.8808 85.5864 28.9854H85.816V30.0875C85.816 32.2919 84.5301 33.3022 82.6473 33.3022C80.7644 33.3022 79.8 32.2919 79.4096 30.983L76.815 32.1082C77.412 33.8302 79.1571 35.7361 82.6932 35.7361C86.3212 35.7361 88.7092 33.8302 88.7092 30.1564V19.4333H85.8619ZM82.7391 28.2965C80.9481 28.2965 79.6163 27.0107 79.6163 24.9441C79.6163 22.8775 80.9481 21.5917 82.7391 21.5917C84.5301 21.5917 85.8619 22.8775 85.8619 24.9441C85.8619 27.0107 84.5301 28.2965 82.7391 28.2965Z" fill="#C4C4C4"/>
<path d="M90.5807 25.1278C90.5807 28.8476 93.1524 31.1438 96.5507 31.1438C99.9491 31.1438 102.521 28.8476 102.521 25.1278C102.521 21.408 99.9491 19.1118 96.5507 19.1118C93.1524 19.1118 90.5807 21.408 90.5807 25.1278ZM93.4739 25.1278C93.4739 22.9235 94.7597 21.6376 96.5507 21.6376C98.3418 21.6376 99.6276 22.9235 99.6276 25.1278C99.6276 27.3321 98.3418 28.618 96.5507 28.618C94.7597 28.618 93.4739 27.3321 93.4739 25.1278Z" fill="#C4C4C4"/>
<path d="M104.792 16.1256C104.792 17.2967 105.687 18.1003 106.836 18.1003C107.984 18.1003 108.879 17.2967 108.879 16.1256C108.879 14.9546 107.984 14.1509 106.836 14.1509C105.687 14.1509 104.792 14.9546 104.792 16.1256ZM108.282 19.4321H105.389V30.8211H108.282V19.4321Z" fill="#C4C4C4"/>
<path d="M110.86 35.4147H113.754V29.3528H113.983C114.626 30.2712 115.728 31.1438 117.704 31.1438C120.413 31.1438 122.847 28.8476 122.847 25.1278C122.847 21.408 120.413 19.1118 117.704 19.1118C115.728 19.1118 114.626 19.9844 113.938 20.9718H113.708V19.4333H110.86V35.4147ZM116.831 28.6639C115.04 28.6639 113.708 27.378 113.708 25.1278C113.708 22.8775 115.04 21.5917 116.831 21.5917C118.622 21.5917 119.953 22.8775 119.953 25.1278C119.953 27.378 118.622 28.6639 116.831 28.6639Z" fill="#C4C4C4"/>
<path d="M124.535 22.625C124.535 24.8753 126.417 25.7019 128.805 26.1611L129.403 26.2759C130.826 26.5514 131.468 26.8959 131.468 27.6307C131.468 28.3655 130.826 28.9394 129.494 28.9394C128.162 28.9394 127.084 28.3884 126.784 26.7351L124.121 27.424C124.512 29.812 126.509 31.1438 129.494 31.1438C132.387 31.1438 134.27 29.7891 134.27 27.4011C134.27 25.0129 132.342 24.3701 129.77 23.865L129.172 23.7501C127.978 23.5205 127.335 23.199 127.335 22.4413C127.335 21.7525 127.933 21.3161 129.035 21.3161C130.137 21.3161 130.917 21.7754 131.193 23.0153L133.811 22.2117C133.26 20.3748 131.584 19.1118 129.035 19.1118C126.325 19.1118 124.535 20.3748 124.535 22.625Z" fill="#C4C4C4"/>
<path d="M147.266 30.8212V19.4321H144.374V25.3103C144.374 27.4228 143.341 28.6628 141.572 28.6628C140.01 28.6628 139.138 27.8132 139.138 26.091V19.4321H136.245V26.2288C136.245 29.0532 138.014 31.0049 140.677 31.0049C142.766 31.0049 143.731 30.0864 144.19 29.122H144.419V30.8212H147.266Z" fill="#C4C4C4"/>
<path d="M149.833 19.4322V30.8213H152.726V24.0246C152.726 22.4632 153.461 21.5906 154.792 21.5906C155.941 21.5906 156.629 22.2336 156.629 23.4735V30.8213H159.523V24.0246C159.523 22.4632 160.258 21.5906 161.589 21.5906C162.738 21.5906 163.426 22.2336 163.426 23.4735V30.8213H166.32V23.3357C166.32 20.5803 164.62 19.2485 162.508 19.2485C160.648 19.2485 159.799 20.0752 159.248 21.0396H159.017C158.489 19.9604 157.548 19.2485 155.895 19.2485C154.241 19.2485 153.345 19.9833 152.91 20.8559H152.68V19.4322H149.833Z" fill="#C4C4C4"/>
</svg>
