<svg width="127" height="44" viewBox="0 0 127 44" fill="none" xmlns="http://www.w3.org/2000/svg">
<g clip-path="url(#clip0_1_814)">
<path d="M27.8313 16.7538C27.3269 17.2614 26.9406 17.874 26.6999 18.5478C26.4592 19.2217 26.3702 19.9404 26.439 20.6527L26.415 20.6287C26.4859 21.4672 26.3727 22.3108 26.0837 23.1011C25.7947 23.8913 25.3368 24.6089 24.742 25.2039C24.1469 25.7988 23.4293 26.2568 22.6391 26.5457C21.8489 26.8346 21.0051 26.9478 20.1668 26.877L20.1907 26.9009C19.1879 26.8076 18.1806 27.0258 17.3062 27.5259C16.4319 28.026 15.7331 28.7835 15.3051 29.6953C14.8772 30.6072 14.7407 31.6287 14.9146 32.6209C15.0886 33.6129 15.5642 34.5273 16.2767 35.2392C16.9893 35.9511 17.904 36.4259 18.8962 36.5988C19.8886 36.7718 20.9099 36.6344 21.8214 36.2057C22.7328 35.7768 23.4896 35.0774 23.9889 34.2026C24.4882 33.3278 24.7056 32.3204 24.6114 31.3176L24.6367 31.3415C24.5658 30.5032 24.6789 29.6594 24.9678 28.8691C25.2568 28.079 25.7149 27.3614 26.3097 26.7664C26.9048 26.1715 27.6224 25.7134 28.4125 25.4246C29.2028 25.1356 30.0465 25.0225 30.8849 25.0933L30.8596 25.0693C31.6788 25.1429 32.5034 25.0086 33.257 24.6788C34.0104 24.3489 34.6685 23.8342 35.1701 23.1823C35.6716 22.5305 36.0007 21.7624 36.1263 20.9496C36.2521 20.1367 36.1707 19.3053 35.8895 18.5322C35.6084 17.7592 35.1366 17.0697 34.5181 16.5275C33.8995 15.9854 33.1541 15.6081 32.3509 15.4308C31.5477 15.2535 30.7127 15.2818 29.9233 15.513C29.134 15.7443 28.4158 16.1711 27.8353 16.7538H27.8313Z" fill="#C4C4C4"/>
<path d="M18.0118 23.7635L17.9865 23.7395C18.699 23.8113 19.4186 23.7238 20.0934 23.4834C20.768 23.243 21.3808 22.8558 21.8874 22.3496C22.3939 21.8433 22.7818 21.2308 23.0226 20.5563C23.2635 19.8818 23.3515 19.1623 23.2803 18.4497L23.3056 18.4736C23.2348 17.6351 23.3479 16.7915 23.6368 16.0012C23.9258 15.211 24.3838 14.4934 24.9787 13.8984C25.5737 13.3036 26.2913 12.8455 27.0814 12.5567C27.8717 12.2676 28.7154 12.1546 29.5539 12.2254L29.5286 12.2014C30.5316 12.2956 31.5391 12.0781 32.4139 11.5786C33.2888 11.0791 33.9882 10.3218 34.4168 9.41018C34.8454 8.49855 34.9824 7.47688 34.8091 6.48452C34.6358 5.49216 34.1606 4.57744 33.4482 3.86511C32.7359 3.15279 31.8212 2.67753 30.8288 2.50419C29.8365 2.33084 28.8148 2.46782 27.9031 2.89647C26.9915 3.3251 26.2343 4.02454 25.7348 4.89936C25.2352 5.77417 25.0177 6.78178 25.1119 7.78475L25.088 7.75946C25.1589 8.59792 25.046 9.44176 24.7572 10.2321C24.4683 11.0224 24.0103 11.7401 23.4154 12.3352C22.8204 12.93 22.1027 13.3881 21.3124 13.6769C20.522 13.9658 19.6782 14.0787 18.8397 14.0077L18.8637 14.033C18.1511 13.9613 17.4314 14.0487 16.7568 14.2891C16.0822 14.5294 15.4693 14.9167 14.9627 15.423C14.4561 15.9292 14.0683 16.5418 13.8274 17.2162C13.5866 17.8907 13.4986 18.6102 13.5698 19.3229L13.5459 19.2989C13.6164 20.1372 13.5031 20.9809 13.2142 21.7711C12.925 22.5611 12.4671 23.2787 11.8723 23.8736C11.2773 24.4684 10.5598 24.9263 9.7697 25.2154C8.9796 25.5044 8.13596 25.6177 7.29761 25.5472L7.32157 25.5711C6.3186 25.4769 5.31098 25.6944 4.43616 26.194C3.56135 26.6935 2.86192 27.4507 2.43328 28.3623C2.00464 29.274 1.86764 30.2957 2.04099 31.288C2.21434 32.2803 2.6896 33.1951 3.40192 33.9074C4.11426 34.6198 5.02897 35.095 6.02133 35.2683C7.01369 35.4416 8.03536 35.3046 8.94701 34.876C9.85863 34.4474 10.6159 33.748 11.1154 32.8732C11.6149 31.9983 11.8325 30.9908 11.7382 29.9878L11.7635 30.0117C11.6927 29.1733 11.8058 28.3296 12.0948 27.5393C12.3837 26.7492 12.8417 26.0316 13.4366 25.4365C14.0316 24.8417 14.7492 24.3836 15.5393 24.0948C16.3296 23.8058 17.1733 23.6927 18.0118 23.7635Z" fill="#C4C4C4"/>
<path d="M9.09084 21.092C9.59535 20.5846 9.98162 19.972 10.2221 19.2981C10.4625 18.6241 10.5512 17.9053 10.4819 17.1932L10.5071 17.2172C10.4363 16.3785 10.5494 15.5345 10.8385 14.7441C11.1277 13.9537 11.5859 13.2359 12.1812 12.6409C12.7764 12.0459 13.4943 11.588 14.2848 11.2993C15.0754 11.0105 15.9195 10.8977 16.7581 10.9689L16.7328 10.9449C17.7354 11.0389 18.7426 10.8212 19.617 10.3218C20.4914 9.82228 21.1904 9.06524 21.6189 8.15389C22.0473 7.24253 22.1841 6.22123 22.0108 5.22924C21.8375 4.23726 21.3623 3.32289 20.6502 2.61082C19.9382 1.89875 19.0238 1.42365 18.0318 1.25031C17.0399 1.07696 16.0185 1.21383 15.1072 1.64221C14.1958 2.07059 13.4388 2.76965 12.9394 3.64406C12.4398 4.51847 12.2222 5.52567 12.3161 6.52829L12.2922 6.50433C12.363 7.34274 12.2498 8.18649 11.9609 8.97669C11.6719 9.7669 11.214 10.4845 10.619 11.0795C10.0241 11.6744 9.30646 12.1324 8.51626 12.4213C7.72606 12.7103 6.88231 12.8234 6.04391 12.7526L6.06787 12.7765C5.24866 12.7031 4.42416 12.8376 3.67077 13.1676C2.91739 13.4976 2.25948 14.0125 1.75804 14.6645C1.25659 15.3163 0.927833 16.0844 0.802203 16.8972C0.676585 17.7101 0.758169 18.5415 1.03939 19.3143C1.32062 20.0873 1.79241 20.7767 2.41102 21.3187C3.02963 21.8609 3.77505 22.238 4.57822 22.4153C5.38137 22.5925 6.21629 22.5641 7.0056 22.3329C7.7949 22.1015 8.51304 21.6748 9.09348 21.092H9.09084Z" fill="#C4C4C4"/>
<path d="M50.3246 7.81396H54.278V27.0526H50.3246V7.81396Z" fill="#C4C4C4"/>
<path d="M56.5169 20.4669C56.5115 19.0844 56.9164 17.7312 57.6804 16.579C58.4445 15.4268 59.5334 14.5272 60.8091 13.9943C62.0848 13.4614 63.49 13.3191 64.8466 13.5854C66.2033 13.8518 67.4504 14.5147 68.43 15.4904C69.4096 16.466 70.0775 17.7104 70.3493 19.066C70.6211 20.4216 70.4844 21.8274 69.9567 23.1053C69.4289 24.383 68.5337 25.4756 67.3845 26.2442C66.2353 27.0129 64.8839 27.4233 63.5013 27.4233C62.5836 27.4338 61.673 27.2612 60.8227 26.9156C59.9724 26.5701 59.1995 26.0585 58.5493 25.4109C57.8989 24.7632 57.3843 23.9924 57.0354 23.1435C56.6864 22.2946 56.5101 21.3847 56.5169 20.4669ZM66.5322 20.4669C66.5157 19.871 66.3239 19.2931 65.9809 18.8055C65.6377 18.3181 65.1585 17.9424 64.6032 17.7259C64.0477 17.5092 63.4408 17.461 62.8582 17.5874C62.2756 17.7139 61.7431 18.0091 61.3274 18.4365C60.9119 18.8638 60.6313 19.4043 60.5212 19.9902C60.411 20.576 60.4758 21.1814 60.7078 21.7307C60.9398 22.2799 61.3285 22.7484 61.8253 23.0779C62.3222 23.4073 62.9052 23.583 63.5013 23.583C63.9095 23.594 64.3157 23.5201 64.6941 23.3662C65.0724 23.2123 65.4148 22.9818 65.6995 22.6891C65.9842 22.3962 66.2053 22.0476 66.3485 21.6652C66.4919 21.2827 66.5545 20.8747 66.5322 20.4669Z" fill="#C4C4C4"/>
<path d="M86.2421 13.8763V26.3887C86.2421 30.816 82.7891 32.6876 79.2843 32.6876C78.0504 32.78 76.8147 32.5306 75.7129 31.9672C74.6113 31.4036 73.686 30.5476 73.0387 29.4929L76.4118 27.5428C76.6838 28.0926 77.1174 28.5461 77.6542 28.8428C78.1912 29.1394 78.8059 29.265 79.4161 29.2027C79.8061 29.2568 80.2033 29.2224 80.5783 29.1022C80.9531 28.982 81.2963 28.779 81.5822 28.5084C81.8681 28.2377 82.0895 27.9062 82.2301 27.5383C82.3705 27.1705 82.4264 26.7758 82.3938 26.3834V25.1788C81.9308 25.7452 81.3417 26.1952 80.6733 26.4927C80.005 26.7902 79.2763 26.9269 78.5455 26.8919C76.8068 26.8371 75.1577 26.1079 73.9472 24.8585C72.7367 23.6092 72.0598 21.9379 72.0598 20.1984C72.0598 18.4589 72.7367 16.7875 73.9472 15.5383C75.1577 14.2889 76.8068 13.5597 78.5455 13.5049C79.2763 13.4699 80.005 13.6066 80.6733 13.9041C81.3417 14.2016 81.9308 14.6516 82.3938 15.218V13.8736L86.2421 13.8763ZM82.3951 20.2004C82.4218 19.5633 82.257 18.9328 81.9222 18.3901C81.5874 17.8472 81.0978 17.4172 80.5165 17.1551C79.9352 16.8928 79.2888 16.8107 78.6604 16.9191C78.032 17.0274 77.4504 17.3213 76.9904 17.7631C76.5305 18.2048 76.2133 18.774 76.0795 19.3975C75.9459 20.021 76.0018 20.6703 76.2403 21.2617C76.4787 21.8531 76.8887 22.3597 77.4174 22.7162C77.9461 23.0727 78.5695 23.2628 79.2071 23.262C79.6225 23.291 80.0393 23.2327 80.4308 23.0908C80.8223 22.9489 81.1797 22.7264 81.48 22.4381C81.7803 22.1497 82.017 21.8016 82.1746 21.4161C82.3322 21.0307 82.4074 20.6166 82.3951 20.2004Z" fill="#C4C4C4"/>
<path d="M88.481 20.4669C88.4756 19.0844 88.8804 17.7312 89.6446 16.579C90.4086 15.4268 91.4975 14.5272 92.7732 13.9943C94.0489 13.4614 95.4541 13.3191 96.8107 13.5854C98.1674 13.8518 99.4145 14.5147 100.394 15.4904C101.374 16.466 102.042 17.7104 102.313 19.066C102.585 20.4216 102.449 21.8274 101.921 23.1053C101.393 24.383 100.498 25.4756 99.3487 26.2442C98.1994 27.0129 96.848 27.4233 95.4654 27.4233C94.5477 27.4338 93.637 27.2612 92.7868 26.9156C91.9365 26.5701 91.1636 26.0585 90.5134 25.4109C89.863 24.7632 89.3484 23.9924 88.9995 23.1435C88.6505 22.2946 88.4742 21.3847 88.481 20.4669ZM98.4963 20.4669C98.4798 19.871 98.288 19.2931 97.945 18.8055C97.6018 18.3181 97.1226 17.9424 96.5673 17.7259C96.0118 17.5092 95.4048 17.461 94.8223 17.5874C94.2397 17.7139 93.7072 18.0091 93.2915 18.4365C92.876 18.8638 92.5954 19.4043 92.4851 19.9902C92.3749 20.576 92.4399 21.1814 92.6719 21.7307C92.9039 22.2799 93.2926 22.7484 93.7894 23.0779C94.2863 23.4073 94.8692 23.583 95.4654 23.583C95.8736 23.594 96.2798 23.5201 96.6581 23.3662C97.0365 23.2123 97.3789 22.9818 97.6636 22.6891C97.9483 22.3962 98.1694 22.0476 98.3126 21.6652C98.456 21.2827 98.5186 20.8747 98.4963 20.4669Z" fill="#C4C4C4"/>
<path d="M104.293 10.3462C104.293 9.87702 104.432 9.41841 104.693 9.02834C104.954 8.63826 105.324 8.33422 105.758 8.15469C106.191 7.97515 106.668 7.92817 107.128 8.0197C107.588 8.11123 108.011 8.33715 108.343 8.66889C108.674 9.00061 108.9 9.42327 108.992 9.88341C109.083 10.3435 109.036 10.8205 108.857 11.2539C108.677 11.6874 108.373 12.0578 107.983 12.3185C107.593 12.5791 107.135 12.7182 106.665 12.7182C106.038 12.712 105.438 12.4601 104.995 12.0166C104.552 11.5731 104.3 10.9733 104.293 10.3462ZM104.693 13.8776H108.647V27.0557H104.687L104.693 13.8776Z" fill="#C4C4C4"/>
<path d="M125.718 20.4665C125.763 21.3375 125.636 22.2088 125.344 23.0305C125.052 23.8522 124.6 24.608 124.015 25.2546C123.429 25.901 122.722 26.4254 121.933 26.7976C121.144 27.1696 120.29 27.3822 119.419 27.423C118.686 27.4629 117.954 27.3394 117.275 27.0613C116.596 26.7831 115.987 26.3574 115.493 25.815V32.3255H111.54V13.8775H115.493V15.1155C115.988 14.5734 116.596 14.148 117.275 13.8702C117.954 13.5923 118.686 13.4689 119.419 13.5088C120.29 13.5494 121.145 13.7618 121.934 14.134C122.723 14.5062 123.43 15.0307 124.016 15.6773C124.601 16.324 125.053 17.0801 125.345 17.902C125.637 18.7238 125.764 19.5955 125.718 20.4665ZM121.764 20.4665C121.749 19.8498 121.552 19.2514 121.198 18.7459C120.844 18.2407 120.349 17.8509 119.775 17.6257C119.2 17.4003 118.572 17.3493 117.969 17.4793C117.366 17.609 116.815 17.9139 116.384 18.3555C115.953 18.7973 115.662 19.3561 115.548 19.9625C115.433 20.5686 115.5 21.1951 115.739 21.7636C115.979 22.3321 116.381 22.8172 116.895 23.1583C117.409 23.4994 118.012 23.6813 118.629 23.6812C119.053 23.7001 119.476 23.6291 119.87 23.4731C120.264 23.3173 120.621 23.0797 120.917 22.7762C121.213 22.4725 121.441 22.1099 121.587 21.7119C121.733 21.3139 121.794 20.8894 121.764 20.4665Z" fill="#C4C4C4"/>
</g>
<defs>
<clipPath id="clip0_1_814">
<rect width="126" height="43" fill="white" transform="translate(0.133423 0.784668)"/>
</clipPath>
</defs>
</svg>
