<svg width="140" height="50" viewBox="0 0 140 50" fill="none" xmlns="http://www.w3.org/2000/svg">
<g clip-path="url(#clip0_1_801)">
<path d="M58.1568 28.2155C58.1568 29.2034 57.954 29.9625 57.5484 30.4929C57.1533 31.0233 56.4929 31.2885 55.5674 31.2885C54.6938 31.2885 54.0751 31.0233 53.711 30.4929C53.3575 29.9625 53.1807 29.2034 53.1807 28.2155V11.7273C53.1807 10.7394 53.3575 9.98022 53.711 9.44985C54.0751 8.91948 54.6938 8.6543 55.5674 8.6543C56.4929 8.6543 57.1533 8.91948 57.5484 9.44985C57.954 9.98022 58.1568 10.7394 58.1568 11.7273V28.2155Z" fill="#C4C4C4"/>
<path d="M59.6674 23.426C59.6674 22.3235 59.8442 21.2837 60.1978 20.3061C60.5618 19.3181 61.1025 18.455 61.8201 17.7167C62.5481 16.9783 63.4528 16.3907 64.5343 15.954C65.6263 15.5171 66.9053 15.2988 68.3717 15.2988C69.7756 15.2988 71.0183 15.5016 72.0999 15.9071C73.1814 16.3127 74.0914 16.8795 74.8296 17.6075C75.568 18.325 76.1296 19.1829 76.5144 20.1812C76.8991 21.1692 77.0916 22.2507 77.0916 23.426C77.0916 24.5179 76.9095 25.5525 76.5455 26.5301C76.1816 27.4972 75.6356 28.35 74.9076 29.0884C74.1797 29.8162 73.2698 30.3986 72.1779 30.8355C71.0858 31.2618 69.8171 31.4749 68.3717 31.4749C66.947 31.4749 65.6887 31.2722 64.5966 30.8666C63.5151 30.4507 62.6053 29.8839 61.8669 29.1663C61.1389 28.4384 60.5877 27.5857 60.2134 26.6081C59.8494 25.6202 59.6674 24.5594 59.6674 23.426ZM64.8619 23.426C64.8619 24.1123 64.9242 24.7675 65.0491 25.3913C65.1738 26.0049 65.3715 26.5457 65.6418 27.0137C65.9226 27.4816 66.2866 27.856 66.7337 28.1368C67.181 28.4071 67.7269 28.5424 68.3717 28.5424C68.9644 28.5424 69.4792 28.4176 69.9159 28.1679C70.3632 27.9185 70.7271 27.57 71.008 27.1229C71.2991 26.6757 71.5175 26.1401 71.663 25.5162C71.8086 24.8818 71.8814 24.1851 71.8814 23.426C71.8814 22.7395 71.8138 22.0895 71.6787 21.476C71.5539 20.8521 71.3511 20.3061 71.0703 19.8381C70.7895 19.3598 70.4256 18.9854 69.9783 18.715C69.5416 18.4343 69.006 18.2938 68.3717 18.2938C67.7373 18.2938 67.1966 18.4289 66.7493 18.6994C66.3022 18.9698 65.9383 19.3389 65.6574 19.8069C65.3767 20.2749 65.1738 20.8208 65.0491 21.4449C64.9242 22.0687 64.8619 22.7291 64.8619 23.426Z" fill="#C4C4C4"/>
<path d="M89.8958 28.2773C89.6149 28.7972 89.2718 29.2392 88.8662 29.6032C88.4711 29.9672 88.029 30.2688 87.5404 30.508C87.062 30.7367 86.5472 30.9083 85.996 31.0227C85.4552 31.1267 84.8989 31.1787 84.3269 31.1787C83.3701 31.1787 82.4966 31.0072 81.7062 30.6639C80.9159 30.3207 80.2348 29.8267 79.6628 29.1821C79.1012 28.5269 78.6645 27.7261 78.3525 26.7798C78.0405 25.8334 77.8845 24.7519 77.8845 23.5352C77.8845 22.3912 78.0301 21.3201 78.3213 20.3218C78.6124 19.3234 79.0336 18.4551 79.5848 17.7168C80.1464 16.9784 80.8328 16.396 81.6439 15.9697C82.455 15.5433 83.3806 15.3301 84.4205 15.3301C85.606 15.3301 86.6564 15.5589 87.5715 16.0164C88.4971 16.474 89.2927 17.2228 89.9582 18.2627V17.8572C89.9582 17.1084 90.1609 16.5469 90.5665 16.1724C90.9825 15.7877 91.5545 15.5952 92.2825 15.5952C92.7192 15.5952 93.0883 15.668 93.39 15.8137C93.6915 15.9489 93.9307 16.1568 94.1074 16.4377C94.2843 16.708 94.4091 17.046 94.4819 17.4516C94.5651 17.8467 94.6066 18.2991 94.6066 18.8087V29.2601C94.6066 30.5288 94.4455 31.6622 94.1231 32.6605C93.8111 33.6589 93.3223 34.5013 92.6568 35.1877C91.9912 35.874 91.1385 36.3939 90.0985 36.7476C89.0586 37.1115 87.8211 37.2935 86.386 37.2935C85.3773 37.2935 84.4829 37.2468 83.7029 37.1531C82.9334 37.07 82.2678 36.9399 81.7062 36.7632C81.1448 36.5655 80.7184 36.3472 80.4272 36.108C80.1464 35.8688 80.006 35.5568 80.006 35.1721C80.006 34.9537 80.0371 34.7457 80.0996 34.5481C80.162 34.3505 80.2556 34.1738 80.3803 34.0177C80.5155 33.8721 80.6871 33.7526 80.8952 33.6589C81.1135 33.5758 81.3786 33.5342 81.6907 33.5342C82.0234 33.5342 82.3562 33.5549 82.689 33.5966C83.0322 33.6381 83.3858 33.6798 83.7498 33.7213C84.1241 33.7734 84.5141 33.8201 84.9197 33.8617C85.3356 33.9033 85.7828 33.9242 86.2612 33.9242C86.8332 33.9242 87.3427 33.8669 87.79 33.7526C88.2371 33.6381 88.6166 33.4354 88.9286 33.1441C89.2406 32.853 89.4798 32.463 89.6462 31.9742C89.8126 31.4958 89.8958 30.8823 89.8958 30.1335V28.2773ZM89.8958 23.4261C89.8958 22.6668 89.8386 21.9753 89.7242 21.3514C89.6202 20.7274 89.4381 20.197 89.1782 19.7602C88.9182 19.313 88.5699 18.9699 88.1331 18.7307C87.6962 18.4811 87.1504 18.3564 86.4952 18.3564C85.8504 18.3564 85.3149 18.4863 84.8885 18.7463C84.4726 19.0062 84.1398 19.3651 83.8902 19.8226C83.6406 20.2802 83.4638 20.8157 83.3597 21.4294C83.2662 22.0429 83.2194 22.6981 83.2194 23.3948C83.2194 24.9859 83.5002 26.1819 84.0618 26.9825C84.6232 27.7833 85.4396 28.1837 86.5108 28.1837C87.0099 28.1733 87.4624 28.0796 87.8678 27.9029C88.2838 27.7157 88.6427 27.4298 88.9442 27.045C89.2458 26.6601 89.4798 26.1714 89.6462 25.5786C89.8126 24.9859 89.8958 24.2684 89.8958 23.4261Z" fill="#C4C4C4"/>
<path d="M96.0393 23.426C96.0393 22.3235 96.2161 21.2837 96.5696 20.3061C96.9337 19.3181 97.4744 18.455 98.192 17.7167C98.92 16.9783 99.8246 16.3907 100.906 15.954C101.998 15.5171 103.277 15.2988 104.744 15.2988C106.147 15.2988 107.39 15.5016 108.472 15.9071C109.553 16.3127 110.463 16.8795 111.202 17.6075C111.94 18.325 112.501 19.1829 112.886 20.1812C113.271 21.1692 113.463 22.2507 113.463 23.426C113.463 24.5179 113.281 25.5525 112.917 26.5301C112.553 27.4972 112.007 28.35 111.28 29.0884C110.552 29.8162 109.642 30.3986 108.55 30.8355C107.458 31.2618 106.189 31.4749 104.744 31.4749C103.319 31.4749 102.06 31.2722 100.969 30.8666C99.887 30.4507 98.9771 29.8839 98.2387 29.1663C97.5109 28.4384 96.9596 27.5857 96.5852 26.6081C96.2213 25.6202 96.0393 24.5594 96.0393 23.426ZM101.234 23.426C101.234 24.1123 101.296 24.7675 101.421 25.3913C101.546 26.0049 101.743 26.5457 102.014 27.0137C102.294 27.4816 102.658 27.856 103.106 28.1368C103.553 28.4071 104.099 28.5424 104.744 28.5424C105.336 28.5424 105.851 28.4176 106.288 28.1679C106.735 27.9185 107.099 27.57 107.38 27.1229C107.671 26.6757 107.889 26.1401 108.035 25.5162C108.181 24.8818 108.253 24.1851 108.253 23.426C108.253 22.7395 108.186 22.0895 108.05 21.476C107.926 20.8521 107.723 20.3061 107.442 19.8381C107.161 19.3598 106.797 18.9854 106.35 18.715C105.914 18.4343 105.378 18.2938 104.744 18.2938C104.109 18.2938 103.568 18.4289 103.121 18.6994C102.674 18.9698 102.31 19.3389 102.029 19.8069C101.749 20.2749 101.546 20.8208 101.421 21.4449C101.296 22.0687 101.234 22.7291 101.234 23.426Z" fill="#C4C4C4"/>
<path d="M120.153 10.0414C120.153 10.3846 120.075 10.6914 119.919 10.9618C119.763 11.2218 119.56 11.4401 119.311 11.617C119.061 11.7938 118.77 11.9289 118.437 12.0225C118.115 12.1057 117.782 12.1473 117.439 12.1473C117.075 12.1473 116.726 12.1005 116.394 12.0069C116.071 11.9133 115.785 11.7782 115.536 11.6013C115.286 11.4141 115.088 11.1906 114.943 10.9306C114.797 10.6706 114.724 10.3742 114.724 10.0414C114.724 9.73986 114.792 9.46428 114.927 9.21469C115.073 8.95471 115.265 8.73113 115.504 8.54393C115.744 8.35675 116.03 8.21115 116.362 8.10717C116.695 8.00317 117.059 7.95117 117.454 7.95117C117.797 7.95117 118.13 7.99797 118.453 8.09156C118.785 8.18516 119.077 8.32034 119.326 8.49714C119.576 8.67393 119.773 8.89231 119.919 9.15229C120.075 9.41228 120.153 9.70866 120.153 10.0414ZM119.919 28.2143C119.919 29.2022 119.716 29.9614 119.311 30.4917C118.915 31.0221 118.255 31.2873 117.329 31.2873C116.456 31.2873 115.837 31.0221 115.473 30.4917C115.12 29.9614 114.943 29.2022 114.943 28.2143V18.6677C114.943 17.6797 115.12 16.9206 115.473 16.3902C115.837 15.8599 116.456 15.5946 117.329 15.5946C118.255 15.5946 118.915 15.8599 119.311 16.3902C119.716 16.9206 119.919 17.6797 119.919 18.6677V28.2143Z" fill="#C4C4C4"/>
<path d="M127.092 23.3948C127.092 24.0916 127.144 24.7415 127.248 25.3447C127.362 25.9479 127.55 26.4782 127.809 26.9358C128.08 27.3829 128.434 27.7365 128.87 27.9964C129.317 28.2565 129.869 28.3865 130.524 28.3865C131.127 28.3865 131.631 28.2617 132.037 28.0122C132.453 27.7522 132.785 27.3985 133.036 26.9514C133.284 26.4937 133.462 25.9582 133.565 25.3447C133.68 24.7311 133.737 24.0655 133.737 23.3481C133.737 22.7761 133.696 22.1937 133.612 21.601C133.529 20.9977 133.374 20.4518 133.145 19.963C132.916 19.4742 132.599 19.0738 132.193 18.7618C131.787 18.4499 131.257 18.2939 130.602 18.2939C129.947 18.2939 129.39 18.3979 128.933 18.606C128.485 18.8139 128.121 19.1311 127.841 19.5574C127.57 19.9838 127.378 20.5194 127.264 21.1641C127.149 21.7985 127.092 22.5421 127.092 23.3948ZM127.076 18.6683C127.336 18.1172 127.669 17.6336 128.075 17.2176C128.48 16.8016 128.927 16.4533 129.416 16.1724C129.905 15.8917 130.415 15.6836 130.945 15.5485C131.486 15.4029 132.021 15.3301 132.551 15.3301C133.508 15.3301 134.372 15.5433 135.141 15.9697C135.911 16.396 136.566 16.9784 137.106 17.7168C137.657 18.4448 138.079 19.3079 138.371 20.3062C138.661 21.2941 138.807 22.3549 138.807 23.4884C138.807 24.6635 138.65 25.7398 138.339 26.7174C138.038 27.6949 137.605 28.5373 137.044 29.2444C136.492 29.9412 135.827 30.4871 135.047 30.8823C134.277 31.2775 133.42 31.475 132.474 31.475C131.309 31.475 130.269 31.2047 129.354 30.6639C128.439 30.1232 127.68 29.364 127.076 28.3865V34.0022C127.076 34.99 126.874 35.7493 126.468 36.2796C126.073 36.8099 125.413 37.0752 124.487 37.0752C123.613 37.0752 122.995 36.8099 122.631 36.2796C122.277 35.7493 122.1 34.99 122.1 34.0022V18.6683C122.1 17.6803 122.277 16.9212 122.631 16.3908C122.995 15.8605 123.613 15.5952 124.487 15.5952C125.413 15.5952 126.073 15.8605 126.468 16.3908C126.874 16.9212 127.076 17.6803 127.076 18.6683Z" fill="#C4C4C4"/>
<path d="M20.74 28.6257C16.329 28.6257 12.7533 25.05 12.7533 20.639C12.7533 16.2281 16.329 12.6523 20.74 12.6523C25.1509 12.6523 28.7267 16.2281 28.7267 20.639C28.7267 25.05 25.1509 28.6257 20.74 28.6257Z" fill="#C4C4C4"/>
<path d="M5.26737 23.3674C2.95289 23.7755 1.36644 26.0113 2.2549 28.1871C3.49528 31.2247 5.47416 33.9311 8.03963 36.046C11.7081 39.0699 16.335 40.6858 21.0884 40.6028C25.8419 40.5199 30.4097 38.7435 33.9704 35.5933C36.4604 33.3903 38.3437 30.6164 39.4774 27.5374C40.2894 25.3319 38.6258 23.1528 36.2984 22.8258C33.9712 22.4987 31.8817 24.1927 30.7321 26.2426C30.109 27.3537 29.3001 28.3618 28.331 29.2191C26.288 31.0267 23.6672 32.0458 20.94 32.0934C18.2127 32.1409 15.5579 31.2139 13.4532 29.4788C12.4547 28.6558 11.6112 27.6766 10.9496 26.5879C9.72927 24.5794 7.58185 22.9593 5.26737 23.3674Z" fill="#C4C4C4"/>
<path d="M40.5523 23.1338C40.6543 22.3164 40.7067 21.4836 40.7067 20.6386C40.7067 9.61129 31.7673 0.671875 20.74 0.671875C9.71264 0.671875 0.773224 9.61129 0.773224 20.6386C0.773224 21.7231 0.85968 22.7873 1.02608 23.8249C1.94319 22.5694 3.37457 21.6732 4.92066 21.4005C6.59346 21.1056 8.11377 21.5113 9.39921 22.2696C9.32327 21.7369 9.28398 21.1924 9.28398 20.6386C9.28398 14.3117 14.413 9.18263 20.74 9.18263C27.0669 9.18263 32.1959 14.3117 32.1959 20.6386C32.1959 21.0558 32.1736 21.4678 32.1302 21.8734C33.3885 21.0703 34.894 20.6115 36.5764 20.848C38.1306 21.0664 39.5919 21.9117 40.5523 23.1338Z" fill="#C4C4C4"/>
</g>
<defs>
<clipPath id="clip0_1_801">
<rect width="139" height="49" fill="white" transform="translate(0.151733 0.784668)"/>
</clipPath>
</defs>
</svg>
