<svg width="117" height="47" viewBox="0 0 117 47" fill="none" xmlns="http://www.w3.org/2000/svg">
<g clip-path="url(#clip0_1_837)">
<path d="M37.9665 12.5122C38.4457 12.5122 38.6055 12.6853 38.6055 13.1511V23.6936H44.0231C44.489 23.6936 44.662 23.8666 44.662 24.3325V25.2643C44.662 25.7302 44.489 25.9032 44.0231 25.9032H36.8883C36.4224 25.9032 36.2361 25.7302 36.2361 25.2643V13.1511C36.2361 12.6853 36.4224 12.5122 36.8883 12.5122H37.9665Z" fill="#C4C4C4"/>
<path d="M49.3875 17.158C49.3875 14.0832 51.3309 12.2329 54.7119 12.2329C58.0929 12.2329 60.0364 14.0832 60.0364 17.158V21.2579C60.0364 24.3328 58.0796 26.183 54.7119 26.183C51.3442 26.183 49.3875 24.3328 49.3875 21.2579V17.158ZM57.8001 17.158C57.8001 15.4276 56.7219 14.4958 54.7785 14.4958C52.835 14.4958 51.7701 15.4409 51.7701 17.158V21.2845C51.7701 23.0283 52.835 23.9467 54.7785 23.9467C56.7219 23.9467 57.8001 22.9883 57.8001 21.2845V17.158Z" fill="#C4C4C4"/>
<path d="M75.8898 18.5695C76.4089 18.5695 76.5287 18.7426 76.5287 19.2085V21.7376C76.5428 22.3333 76.4234 22.9247 76.1793 23.4682C75.935 24.0118 75.5724 24.4938 75.1177 24.879C73.9886 25.7782 72.5648 26.2242 71.1244 26.1303C67.6768 26.1303 65.7999 24.28 65.7999 21.2051V17.0787C65.7999 14.0437 67.7434 12.1802 71.1244 12.1802C73.7866 12.1802 75.5171 13.2318 76.2492 15.3349C76.2902 15.414 76.3121 15.5014 76.3133 15.5904C76.3145 15.6794 76.295 15.7675 76.2562 15.8475C76.2175 15.9277 76.1605 15.9977 76.09 16.052C76.0194 16.1062 75.9372 16.1433 75.8498 16.1602L74.8116 16.5196C74.359 16.6793 74.1726 16.5862 74.0129 16.1203C73.7923 15.5518 73.3886 15.0728 72.8655 14.7595C72.3424 14.4461 71.7298 14.316 71.1244 14.3898C69.1676 14.3898 68.1028 15.3349 68.1028 17.0521V21.285C68.1028 23.0288 69.181 23.9472 71.1244 23.9472C73.0678 23.9472 74.2658 23.0554 74.2658 21.7509V20.7659H71.3773C70.8981 20.7659 70.7251 20.5795 70.7251 20.1136V19.2085C70.7251 18.7426 70.8981 18.5695 71.3773 18.5695H75.8898Z" fill="#C4C4C4"/>
<path d="M82.0262 17.158C82.0262 14.0832 83.9697 12.2329 87.3507 12.2329C90.7317 12.2329 92.6752 14.0832 92.6752 17.158V21.2579C92.6752 24.3328 90.7184 26.183 87.3507 26.183C83.983 26.183 82.0262 24.3328 82.0262 21.2579V17.158ZM90.4256 17.158C90.4256 15.4276 89.3474 14.4958 87.4173 14.4958C85.4871 14.4958 84.3956 15.4409 84.3956 17.158V21.2845C84.3956 23.0283 85.4738 23.9467 87.4173 23.9467C89.3607 23.9467 90.4256 22.9883 90.4256 21.2845V17.158Z" fill="#C4C4C4"/>
<path d="M98.9447 12.8982C98.9447 12.6054 99.0379 12.5122 99.3307 12.5122H99.943C100.236 12.5122 100.302 12.6054 100.302 12.8982V25.5172C100.302 25.8101 100.302 25.9032 99.943 25.9032H99.3307C99.0379 25.9032 98.9447 25.8101 98.9447 25.5172V12.8982Z" fill="#C4C4C4"/>
<path d="M112.429 12.5122C113.537 12.5122 114.6 12.9525 115.384 13.7364C116.168 14.5202 116.609 15.5834 116.609 16.6919C116.609 17.8005 116.168 18.8636 115.384 19.6474C114.6 20.4313 113.537 20.8716 112.429 20.8716H108.435V25.5172C108.435 25.8101 108.369 25.9032 108.089 25.9032H107.464C107.184 25.9032 107.078 25.8101 107.078 25.5172V12.8982C107.078 12.6054 107.184 12.5122 107.464 12.5122H112.429ZM112.309 19.5538C112.69 19.5538 113.068 19.4787 113.42 19.333C113.772 19.1871 114.092 18.9733 114.361 18.7039C114.63 18.4345 114.844 18.1145 114.99 17.7625C115.136 17.4104 115.211 17.0331 115.211 16.652C115.211 16.2709 115.136 15.8935 114.99 15.5414C114.844 15.1895 114.63 14.8695 114.361 14.6001C114.092 14.3306 113.772 14.1169 113.42 13.971C113.068 13.8252 112.69 13.7501 112.309 13.7501H108.316V19.5538H112.309Z" fill="#C4C4C4"/>
<path d="M14.2854 23.8803V33.5042C14.2854 33.8732 14.1389 34.227 13.878 34.4878C13.6172 34.7487 13.2634 34.8952 12.8944 34.8952C12.5256 34.8952 12.1718 34.7487 11.9109 34.4878C11.65 34.227 11.5034 33.8732 11.5034 33.5042V23.8936C11.8908 24.1764 12.3551 24.3343 12.8345 24.3461C13.3571 24.3611 13.8692 24.1967 14.2854 23.8803ZM26.1324 21.0982C25.7794 21.0982 25.4407 21.2385 25.1911 21.4881C24.9415 21.7377 24.8013 22.0763 24.8013 22.4293V24.1065C24.8013 24.4755 24.9478 24.8293 25.2087 25.0901C25.4695 25.351 25.8233 25.4976 26.1923 25.4976C26.5613 25.4976 26.9151 25.351 27.1758 25.0901C27.4367 24.8293 27.5833 24.4755 27.5833 24.1065V22.4959C27.5937 22.305 27.5628 22.1141 27.4928 21.9363C27.4228 21.7585 27.3153 21.5977 27.1776 21.4651C27.0399 21.3325 26.8753 21.2311 26.695 21.1677C26.5147 21.1045 26.3227 21.0808 26.1324 21.0982ZM8.48177 27.5275C8.0028 27.5131 7.53911 27.3555 7.15066 27.0749V36.7255C7.15066 37.0962 7.2979 37.4518 7.56003 37.7139C7.82214 37.976 8.17764 38.1232 8.54833 38.1232C8.91902 38.1232 9.27452 37.976 9.53663 37.7139C9.79875 37.4518 9.946 37.0962 9.946 36.7255V27.1415C9.51132 27.4225 8.99846 27.5577 8.48177 27.5275ZM21.7929 18.2097C21.6126 18.2007 21.4323 18.2285 21.263 18.2913C21.0938 18.3541 20.9392 18.4508 20.8083 18.5752C20.6776 18.6998 20.5736 18.8496 20.5025 19.0156C20.4316 19.1816 20.395 19.3603 20.3953 19.5408V26.9551C20.3953 27.3259 20.5425 27.6814 20.8046 27.9435C21.0668 28.2056 21.4222 28.3528 21.7929 28.3528C22.1636 28.3528 22.5192 28.2056 22.7813 27.9435C23.0434 27.6814 23.1906 27.3259 23.1906 26.9551V19.634C23.2013 19.4419 23.1701 19.2498 23.0993 19.0709C23.0285 18.892 22.9199 18.7306 22.7806 18.5977C22.6414 18.4649 22.4751 18.3637 22.2932 18.3014C22.1112 18.239 21.9178 18.2168 21.7264 18.2363L21.7929 18.2097ZM17.3736 21.0583C16.8722 21.0548 16.3842 20.8968 15.976 20.6057V30.2829C15.976 30.6536 16.1232 31.0092 16.3853 31.2713C16.6475 31.5334 17.0029 31.6806 17.3736 31.6806C17.7443 31.6806 18.0997 31.5334 18.362 31.2713C18.6241 31.0092 18.7713 30.6536 18.7713 30.2829V20.619C18.3491 20.9336 17.8335 21.0976 17.3071 21.0849L17.3736 21.0583ZM5.46014 28.4726V1.43764C5.45664 1.1081 5.32326 0.793265 5.08898 0.561478C4.85471 0.329691 4.53845 0.199694 4.20889 0.199707H3.91604C3.58649 0.199694 3.27023 0.329691 3.03595 0.561478C2.80167 0.793265 2.6683 1.1081 2.66479 1.43764V28.4726C2.66479 28.8045 2.79663 29.1227 3.03128 29.3574C3.26593 29.5921 3.5842 29.7239 3.91604 29.7239H4.20889C4.54075 29.7239 4.85901 29.5921 5.09366 29.3574C5.32832 29.1227 5.46014 28.8045 5.46014 28.4726ZM8.62819 26.5026H8.33535C8.0035 26.5026 7.68523 26.3708 7.45058 26.1361C7.21593 25.9014 7.0841 25.5832 7.0841 25.2513V4.65895C7.08761 4.32941 7.22098 4.01455 7.45526 3.78278C7.68953 3.55099 8.00579 3.42099 8.33535 3.42101H8.62819C8.95775 3.42099 9.27401 3.55099 9.50829 3.78278C9.74256 4.01455 9.87594 4.32941 9.87944 4.65895V25.2779C9.87944 25.6098 9.74761 25.928 9.51296 26.1627C9.27831 26.3974 8.96004 26.5292 8.62819 26.5292V26.5026ZM13.0342 23.3345H12.728C12.3998 23.3345 12.0848 23.2041 11.8527 22.9719C11.6205 22.7398 11.4901 22.425 11.4901 22.0966V7.85362C11.4884 7.68994 11.5191 7.52753 11.5805 7.37579C11.6418 7.22406 11.7328 7.08602 11.8479 6.96966C11.963 6.85329 12.1001 6.76091 12.2512 6.69787C12.4023 6.63483 12.5643 6.60236 12.728 6.60237H13.0342C13.3638 6.60589 13.6786 6.73925 13.9103 6.97353C14.1422 7.20781 14.2721 7.52407 14.2721 7.85362V22.0966C14.2721 22.425 14.1417 22.7398 13.9095 22.9719C13.6774 23.2041 13.3626 23.3345 13.0342 23.3345ZM17.4402 20.0733H17.1606C16.8311 20.0733 16.5148 19.9433 16.2805 19.7115C16.0462 19.4797 15.9129 19.1649 15.9094 18.8353V11.1681C15.8985 10.9972 15.9227 10.8259 15.9807 10.6647C16.0386 10.5036 16.1292 10.356 16.2464 10.2313C16.3637 10.1064 16.5053 10.0071 16.6627 9.93922C16.8199 9.87146 16.9893 9.83659 17.1606 9.83699H17.4535C17.7853 9.83699 18.1036 9.96877 18.3383 10.2034C18.573 10.4381 18.7047 10.7564 18.7047 11.0882V18.8087C18.7065 18.9742 18.6755 19.1383 18.6133 19.2916C18.5513 19.445 18.4594 19.5845 18.3429 19.7022C18.2266 19.8197 18.0882 19.913 17.9354 19.9768C17.7827 20.0405 17.6189 20.0733 17.4535 20.0733H17.4402ZM21.8595 17.2114H21.5666C21.2348 17.2114 20.9165 17.0796 20.6818 16.8449C20.4472 16.6102 20.3154 16.292 20.3154 15.9601V13.9768C20.3189 13.6472 20.4522 13.3324 20.6865 13.1006C20.9208 12.8687 21.2371 12.7388 21.5666 12.7388H21.8595C22.1891 12.7388 22.5053 12.8687 22.7396 13.1006C22.9739 13.3324 23.1073 13.6472 23.1107 13.9768V15.9601C23.1107 16.2897 22.9808 16.606 22.7489 16.8403C22.5172 17.0745 22.2024 17.2079 21.8728 17.2114H21.8595Z" fill="#C4C4C4"/>
</g>
<defs>
<clipPath id="clip0_1_837">
<rect width="116" height="47" fill="white" transform="translate(0.938843)"/>
</clipPath>
</defs>
</svg>
