<svg width="150" height="65" viewBox="0 0 150 65" fill="none" xmlns="http://www.w3.org/2000/svg">
<g clip-path="url(#clip0_1_786)">
<path d="M71.1553 36.2722V13.4941H67.4202V36.2722H71.1553Z" fill="#C4C4C4"/>
<path d="M73.4413 28.6788C73.4413 33.3324 76.5641 36.6389 81.3096 36.6389C86.055 36.6389 89.1778 33.3324 89.1778 28.6788C89.1778 24.0252 86.055 20.7188 81.3096 20.7188C76.5641 20.7188 73.4413 24.0252 73.4413 28.6788ZM77.2071 28.6788C77.2071 25.954 78.8297 24.0559 81.3096 24.0559C83.7894 24.0559 85.4121 25.954 85.4121 28.6788C85.4121 31.373 83.7894 33.3018 81.3096 33.3018C78.8297 33.3018 77.2071 31.373 77.2071 28.6788Z" fill="#C4C4C4"/>
<path d="M90.4341 28.3734C90.4341 32.782 93.2814 35.966 97.5369 35.966C99.7413 35.966 101.639 35.0782 102.589 33.6086V36.1803C102.589 38.6602 101.027 40.3135 98.4248 40.3135C96.098 40.3135 94.506 39.1807 94.2917 37.1907H90.526C91.0158 41.1401 94.0468 43.7118 98.2105 43.7118C103.109 43.7118 106.232 40.4972 106.232 35.5068V21.1481H102.925L102.711 23.1993C101.793 21.6073 99.8943 20.6582 97.6594 20.6582C93.3426 20.6582 90.4341 23.9341 90.4341 28.3734ZM94.2305 28.2815C94.2305 25.771 95.8225 23.9341 98.1799 23.9341C100.752 23.9341 102.466 25.8016 102.466 28.2815C102.466 30.792 100.752 32.7208 98.1799 32.7208C95.8531 32.7208 94.2305 30.8226 94.2305 28.2815Z" fill="#C4C4C4"/>
<path d="M108.08 28.6788C108.08 33.3324 111.203 36.6389 115.948 36.6389C120.694 36.6389 123.817 33.3324 123.817 28.6788C123.817 24.0252 120.694 20.7188 115.948 20.7188C111.203 20.7188 108.08 24.0252 108.08 28.6788ZM111.846 28.6788C111.846 25.954 113.469 24.0559 115.948 24.0559C118.428 24.0559 120.051 25.954 120.051 28.6788C120.051 31.373 118.428 33.3018 115.948 33.3018C113.469 33.3018 111.846 31.373 111.846 28.6788Z" fill="#C4C4C4"/>
<path d="M127.859 18.0545C129.083 18.0545 130.094 17.0748 130.094 15.8196C130.094 14.5949 129.083 13.6152 127.859 13.6152C126.604 13.6152 125.654 14.5949 125.654 15.8196C125.654 17.0748 126.604 18.0545 127.859 18.0545ZM125.991 36.2708H129.726V21.1467H125.991V36.2708Z" fill="#C4C4C4"/>
<path d="M132.999 43.2819H136.642V34.189C137.591 35.7504 139.643 36.6689 141.908 36.6689C146.378 36.6689 149.042 33.2399 148.98 28.5251C148.888 23.7797 146.164 20.6875 141.877 20.6875C139.581 20.6875 137.499 21.6978 136.581 23.4429L136.367 21.1467H132.999V43.2819ZM136.795 28.7088C136.795 25.984 138.449 24.0858 141.051 24.0858C143.653 24.0858 145.215 26.0146 145.215 28.7088C145.215 31.403 143.653 33.3012 141.051 33.3012C138.449 33.3012 136.795 31.4336 136.795 28.7088Z" fill="#C4C4C4"/>
<path fill-rule="evenodd" clip-rule="evenodd" d="M5.34625 28.8639L5.34882 28.5971L5.35412 28.3302L5.36216 28.0633L5.37293 27.7964L5.38645 27.5296L5.4027 27.2627L5.42171 26.9959L5.44345 26.7292L5.46794 26.4625L5.49518 26.1959L5.52515 25.9297L5.55786 25.6635L5.59332 25.3975L5.63152 25.1318L5.67246 24.8664L5.71613 24.6014L5.76255 24.3365L5.81168 24.0721L5.86355 23.808L5.91815 23.5443L5.97548 23.281L6.03552 23.0183L6.09829 22.756L6.16376 22.4942L6.23195 22.233L6.30283 21.9723L6.37643 21.7122L6.45272 21.4527L6.53169 21.194L6.61334 20.9359L6.69768 20.6784L6.7847 20.4217L6.87437 20.1657L6.9667 19.9105L7.06169 19.6561L7.15931 19.4026L7.25959 19.1499L7.36248 18.8981L7.468 18.6473L7.57612 18.3973L7.68686 18.1482L7.80019 17.9003L7.9161 17.6533L8.0346 17.4073L8.15567 17.1624L8.27929 16.9187L8.40545 16.676L8.53415 16.4344L8.66538 16.1942L8.79911 15.955L8.93537 15.717L9.0741 15.4803L9.21531 15.2448L9.35899 15.0107L9.50514 14.7779L9.65372 14.5464L9.80473 14.3164L9.95817 14.0875L10.114 13.8603L10.2722 13.6344L10.4328 13.41L10.5958 13.1872L10.7611 12.9657L10.9287 12.7459L11.0987 12.5276L11.271 12.3108L11.4455 12.0957L11.6223 11.8822L11.8014 11.6704L11.9827 11.4602L12.1663 11.2518L12.352 11.045L12.54 10.84L12.7301 10.6368L12.9224 10.4353L13.1168 10.2357L13.3133 10.0379L13.5119 9.84191L13.7126 9.64782L13.9154 9.45562L14.1203 9.26535L14.3271 9.077L14.536 8.89061L14.7468 8.7062L14.9597 8.52377L15.1745 8.34338L15.3912 8.16502L15.6098 7.98872L15.8303 7.81449L16.0527 7.64235L16.2768 7.47234L16.503 7.30444L16.7309 7.13872L16.9605 6.97516L17.1919 6.81379L17.4251 6.65463L17.6599 6.49768L17.8964 6.34299L18.1347 6.19055L18.3747 6.0404L18.6161 5.89254L18.8593 5.74698L19.104 5.60377L19.3503 5.4629L19.5981 5.32438L19.8474 5.18825L20.0982 5.0545L20.3505 4.92317L20.6042 4.79425L20.8593 4.66778L21.1158 4.54376L21.3738 4.4222L21.633 4.30314L21.8936 4.18657L22.1555 4.07251L22.4186 3.96097L22.683 3.85198L22.9485 3.74553L23.2153 3.64164L23.4832 3.54034L23.7523 3.44161L24.0225 3.34551L24.2938 3.25199L24.5661 3.16111L24.8394 3.07287L25.1137 2.98726L25.3891 2.90432L25.6655 2.82405L25.9426 2.74646L26.2208 2.67155L26.4998 2.59933L26.7796 2.52984L27.0602 2.46307L27.3417 2.399L27.6239 2.33769L27.9068 2.27911L28.1905 2.22328L28.4748 2.17022L28.7598 2.11992L29.0454 2.0724L29.3316 2.02766L29.6184 1.9857L29.9056 1.94656L30.1934 1.9102L30.4817 1.87666L30.7704 1.84591L31.0596 1.81801L31.3491 1.79292L31.639 1.77065L31.9292 1.75123L33.4898 1.66211L33.5788 9.18114L33.6298 9.18056L33.8453 9.18025L34.0608 9.18206L34.2763 9.18599L34.4921 9.19205L34.7077 9.20022L34.9235 9.21049L35.1393 9.22291L35.3551 9.23746L35.5707 9.25412L35.7865 9.27291L36.002 9.29384L36.2175 9.31689L36.4327 9.34206L36.648 9.36936L36.8629 9.39879L37.0778 9.43034L37.2924 9.46403L37.5068 9.49984L37.7209 9.53776L37.9348 9.57782L38.1483 9.61999L38.3614 9.66429L38.5744 9.71069L38.7868 9.75921L38.9989 9.80983L39.2106 9.86257L39.4219 9.91742L39.6326 9.97437L39.8429 10.0334L40.0528 10.0946L40.2621 10.1578L40.4708 10.2231L40.679 10.2905L40.8866 10.36L41.0936 10.4315L41.3 10.5052L41.5057 10.5808L41.7107 10.6586L41.9151 10.7384L42.1187 10.8202L42.3216 10.9041L42.5237 10.99L42.725 11.078L42.9257 11.1679L43.1253 11.2599L43.3242 11.3539L43.5223 11.4499L43.7194 11.5479L43.9156 11.6478L44.1109 11.7498L44.3052 11.8537L44.4986 11.9596L44.691 12.0674L44.8824 12.1771L45.0727 12.2888L45.262 12.4025L45.4502 12.518L45.6374 12.6354L45.8234 12.7548L46.0082 12.876L46.1919 12.9991L46.3746 13.1241L46.5559 13.2508L46.7361 13.3795L46.915 13.51L47.0926 13.6423L47.2691 13.7765L47.4441 13.9124L47.618 14.0501L47.7903 14.1895L47.9615 14.3307L48.1312 14.4738L48.2996 14.6185L48.4667 14.7649L48.6323 14.9131L48.7963 15.063L48.9589 15.2146L49.1201 15.3678L49.2799 15.5226L49.438 15.6792L49.5947 15.8373L49.7497 15.9972L49.9034 16.1585L50.0552 16.3214L50.2057 16.4859L50.3543 16.6521L50.5014 16.8197L50.6469 16.9888L50.7907 17.1595L50.9328 17.3316L51.0733 17.5053L51.212 17.6804L51.349 17.8569L51.4842 18.0348L51.6177 18.2143L51.7493 18.395L51.8793 18.5773L52.0073 18.7608L52.1336 18.9456L52.2581 19.1318L52.3807 19.3194L52.5014 19.5082L52.6202 19.6983L52.7372 19.8896L52.8522 20.0822L52.9653 20.276L53.0765 20.471L53.1858 20.6672L53.293 20.8647L53.3983 21.0631L53.5016 21.2628L53.6029 21.4635L53.7022 21.6653L53.7995 21.8683L53.8948 22.0722L53.988 22.2772L54.0792 22.4833L54.1683 22.6903L54.2552 22.8983L54.3401 23.1072L54.4229 23.3171L54.5036 23.5278L54.5821 23.7396L54.6585 23.952L54.7328 24.1656L54.8049 24.3797L54.8749 24.5948L54.9427 24.8106L55.0083 25.0272L55.0717 25.2446L55.1329 25.4626L55.1919 25.6814L55.2487 25.9009L55.3032 26.121L55.3556 26.3418L55.4057 26.5632L55.4534 26.7852L55.4991 27.0076L55.5424 27.2308L55.5834 27.4545L55.6222 27.6786L55.6587 27.9032L55.6929 28.1283L55.7249 28.3539L55.7544 28.5798L55.7817 28.8062L55.8067 29.0329L55.8294 29.26L55.8497 29.4874L55.8678 29.7151L55.8835 29.9431L55.8968 30.1714L55.9079 30.3998L55.9167 30.6287L55.9229 30.8575L55.9271 31.0866L55.9287 31.3158L55.928 31.5451L55.9249 31.7746L55.9195 32.0042L55.9118 32.2337L55.9016 32.4633L55.8893 32.6929L55.8743 32.9226L55.8572 33.1522L55.8376 33.3817L55.8156 33.6112L55.7914 33.8405L55.7647 34.0696L55.7356 34.2987L55.7044 34.5275L55.6706 34.7562L55.6345 34.9846L55.596 35.2128L55.5551 35.4406L55.512 35.6683L55.4665 35.8956L55.4186 36.1226L55.3683 36.3491L55.3157 36.5754L55.2608 36.8012L55.2035 37.0265L55.1438 37.2514L55.0819 37.4758L55.0176 37.6997L54.9511 37.923L54.8821 38.146L54.8108 38.3682L54.7373 38.5899L54.6614 38.8109L54.5832 39.0313L54.5028 39.2511L54.42 39.4701L54.3349 39.6884L54.2476 39.906L54.158 40.1228L54.0662 40.3389L53.972 40.5543L53.8757 40.7686L53.777 40.9822L53.6761 41.1949L53.5731 41.4067L53.4677 41.6177L53.3603 41.8276L53.2504 42.0367L53.1386 42.2446L53.0244 42.4518L52.9082 42.6577L52.7897 42.8627L52.6692 43.0666L52.5464 43.2693L52.4216 43.4711L52.2944 43.6716L52.1653 43.871L52.0342 44.0692L51.9008 44.2662L51.7655 44.462L51.628 44.6566L51.4884 44.8499L51.3468 45.042L51.2032 45.2327L51.0576 45.4221L50.9099 45.6101L50.7603 45.7969L50.6087 45.9821L50.4551 46.166L50.2995 46.3485L50.142 46.5295L49.9826 46.7091L49.8212 46.8872L49.658 47.0638L49.493 47.2388L49.3259 47.4124L49.1571 47.5843L48.9864 47.7547L48.8138 47.9234L48.6396 48.0906L48.4635 48.2562L48.2857 48.4201L48.106 48.5823L47.9245 48.7427L47.7415 48.9016L47.5566 49.0588L47.3701 49.2141L47.1819 49.3676L46.9921 49.5195L46.8005 49.6695L46.6074 49.8176L46.4126 49.9639L46.2163 50.1085L46.0185 50.2512L45.819 50.3919L45.618 50.5308L45.4155 50.6678L45.2116 50.8028L45.0061 50.9359L44.7992 51.0671L44.5909 51.1963L44.3811 51.3235L44.1698 51.4486L43.9573 51.5719L43.7435 51.693L43.5281 51.812L43.3117 51.9292L43.0938 52.044L42.8747 52.1569L42.6542 52.2678L42.4326 52.3764L42.2098 52.4829L41.9857 52.5874L41.7605 52.6896L41.5342 52.7897L41.3067 52.8876L41.0782 52.9833L40.8486 53.0769L40.6179 53.1682L40.3861 53.2572L40.1533 53.3441L39.9196 53.4287L39.6848 53.5111L39.4492 53.5911L39.2126 53.6689L38.975 53.7444L38.7366 53.8176L38.4974 53.8886L38.2574 53.9571L38.0165 54.0234L37.7749 54.0874L37.5324 54.1489L37.2893 54.2082L37.0454 54.2651L36.8008 54.3196L36.5556 54.3718L36.3097 54.4216L36.0632 54.4689L35.8162 54.5139L35.5686 54.5564L35.3203 54.5966L35.0717 54.6344L34.8223 54.6697L34.5728 54.7025L34.3226 54.733L34.072 54.761L33.8211 54.7865L33.5698 54.8097L33.3182 54.8303L33.0662 54.8486L32.814 54.8643L32.5613 54.8776L32.3085 54.8884L32.0556 54.8966L31.8023 54.9025L31.549 54.9058L31.2954 54.9067L31.0418 54.9051L30.7881 54.901L30.5343 54.8945L30.2804 54.8853L30.0266 54.8737L29.7728 54.8598L29.519 54.8431L29.2652 54.8241L29.0116 54.8025L28.7581 54.7784L28.5046 54.7519L28.2514 54.7229L27.9984 54.6914L27.7455 54.6573L27.493 54.6207L27.2406 54.5817L26.9886 54.5402L26.7369 54.4962L26.4854 54.4496L26.2345 54.4007L25.9839 54.3493L25.7338 54.2952L25.4839 54.2388L25.2347 54.18L24.9859 54.1186L24.7377 54.0547L24.49 53.9884L24.2429 53.9197L23.9964 53.8485L23.7504 53.7749L23.5052 53.6988L23.2607 53.6202L23.0168 53.5393L22.7736 53.4558L22.5312 53.37L22.2896 53.2819L22.0488 53.1912L21.8088 53.0982L21.5698 53.0027L21.3315 52.9049L21.0942 52.8046L20.8577 52.7021L20.6223 52.5973L20.3877 52.49L20.1543 52.3803L19.9218 52.2683L19.6905 52.154L19.4601 52.0374L19.2309 51.9185L19.0028 51.7973L18.7757 51.6739L18.55 51.5481L18.3254 51.42L18.1021 51.2897L17.8799 51.1571L17.6591 51.0224L17.4394 50.8853L17.2211 50.7462L17.0043 50.6047L16.7887 50.4612L16.5745 50.3153L16.3618 50.1674L16.1504 50.0174L15.9405 49.8651L15.7321 49.7109L15.5251 49.5543L15.3197 49.3958L15.1158 49.2353L14.9135 49.0725L14.7128 48.9078L14.5137 48.741L14.3162 48.5722L14.1203 48.4014L13.9262 48.2285L13.7337 48.0538L13.5429 47.8771L13.3539 47.6984L13.1666 47.5179L12.9811 47.3352L12.7974 47.1509L12.6155 46.9646L12.4354 46.7764L12.2572 46.5865L12.0809 46.3947L11.9065 46.201L11.7339 46.0056L11.5633 45.8084L11.3947 45.6094L11.228 45.4088L11.0634 45.2064L10.9007 45.0023L10.74 44.7965L10.5814 44.5891L10.4249 44.38L10.2704 44.1693L10.1181 43.957L9.96782 43.7431L9.81971 43.5277L9.67374 43.3107L9.52994 43.0922L9.38832 42.8723L9.24888 42.6508L9.11167 42.4278L8.9767 42.2035L8.84396 41.9776L8.7135 41.7505L8.5853 41.522L8.45939 41.2921L8.33579 41.0607L8.2145 40.8282L8.09557 40.5945L7.97896 40.3594L7.86474 40.1231L7.75288 39.8855L7.64341 39.6468L7.53635 39.4068L7.4317 39.1659L7.32948 38.9236L7.22971 38.6804L7.13238 38.436L7.03753 38.1906L6.94516 37.9442L6.85527 37.6967L6.76788 37.4484L6.683 37.199L6.60064 36.9487L6.52083 36.6975L6.44354 36.4454L6.36883 36.1925L6.29667 35.9386L6.22708 35.684L6.16007 35.4287L6.09566 35.1726L6.03384 34.9156L5.97465 34.6581L5.91806 34.3997L5.8641 34.1408L5.81277 33.8812L5.76408 33.6211L5.71803 33.3604L5.67465 33.0991L5.63392 32.8372L5.59586 32.5749L5.56048 32.312L5.52779 32.0487L5.49777 31.785L5.47045 31.5209L5.44582 31.2565L5.4239 30.9916L5.40468 30.7265L5.38817 30.4611L5.37438 30.1954L5.3633 29.9294L5.35494 29.6633L5.34931 29.397L5.34643 29.1305L5.34625 28.8639ZM31.1407 9.33864L31.08 4.21358L31.0224 4.21914L30.7578 4.24731L30.4938 4.27803L30.23 4.31136L29.9672 4.34717L29.7047 4.38559L29.4425 4.42657L29.1811 4.47007L28.9199 4.51617L28.6601 4.56466L28.3998 4.61587L28.1415 4.66938L27.8827 4.72559L27.6253 4.78419L27.3681 4.84539L27.1121 4.90894L26.8568 4.97504L26.6022 5.04361L26.3483 5.11465L26.0957 5.18808L25.8434 5.26403L25.5925 5.34234L25.3423 5.42314L25.0934 5.50617L24.8448 5.59183L24.5976 5.67978L24.3517 5.77005L24.1063 5.86279L23.8623 5.95779L23.6197 6.05508L23.3777 6.15488L23.1369 6.25693L22.8973 6.36132L22.659 6.4679L22.4219 6.5768L22.1862 6.6879L21.9513 6.80144L21.718 6.91706L21.486 7.03493L21.2554 7.15503L21.026 7.27734L20.7982 7.40175L20.5714 7.52846L20.3461 7.65736L20.1227 7.7881L19.9 7.9214L19.6794 8.05647L19.4603 8.19364L19.2423 8.33306L19.026 8.47452L18.8113 8.61804L18.5986 8.76325L18.3867 8.91103L18.1769 9.0604L17.9687 9.21183L17.762 9.36533L17.5571 9.52066L17.3541 9.67785L17.1523 9.83725L16.9528 9.99817L16.7547 10.1612L16.5585 10.326L16.364 10.4927L16.1716 10.6611L15.9805 10.8315L15.7917 11.0035L15.6044 11.1774L15.4193 11.3528L15.2359 11.5301L15.0546 11.7091L14.8751 11.8898L14.6973 12.0723L14.5219 12.2561L14.3484 12.4415L14.1765 12.629L14.007 12.8178L13.8395 13.0079L13.6738 13.2L13.5105 13.3932L13.349 13.5882L13.1896 13.7846L13.0324 13.9825L12.8771 14.1818L12.7242 14.3824L12.5733 14.5844L12.4245 14.7881L12.278 14.9927L12.1335 15.199L11.9913 15.4064L11.8513 15.6151L11.7134 15.8252L11.5779 16.0364L11.4445 16.2487L11.3134 16.4624L11.1847 16.6771L11.058 16.8931L10.9337 17.1104L10.8118 17.3284L10.692 17.5476L10.5746 17.7681L10.4595 17.9894L10.3467 18.2119L10.2363 18.4351L10.1283 18.6594L10.0226 18.8846L9.91919 19.1109L9.81826 19.3379L9.71961 19.5659L9.62337 19.7947L9.52959 20.0242L9.43816 20.2546L9.34912 20.4858L9.26253 20.7177L9.17834 20.9504L9.09663 21.1836L9.01728 21.4177L8.9404 21.6524L8.86598 21.8877L8.79402 22.1235L8.72445 22.3602L8.6574 22.5971L8.5928 22.8347L8.53065 23.0727L8.47098 23.3114L8.4138 23.5503L8.35909 23.7898L8.30685 24.0296L8.25711 24.2699L8.20986 24.5104L8.16508 24.7514L8.1228 24.9926L8.08301 25.2342L8.04573 25.4759L8.01093 25.7179L7.97864 25.9602L7.94884 26.2026L7.92154 26.4451L7.89674 26.6879L7.87444 26.9307L7.85463 27.1735L7.83733 27.4165L7.82253 27.6596L7.81021 27.9025L7.8004 28.1456L7.79308 28.3885L7.78826 28.6314L7.78592 28.8742L7.78608 29.117L7.78872 29.3596L7.79384 29.6021L7.80144 29.8444L7.81152 30.0864L7.82408 30.3282L7.8391 30.5697L7.85659 30.811L7.87654 31.0519L7.89896 31.2926L7.92381 31.533L7.95113 31.7729L7.98088 32.0125L8.01306 32.2516L8.04769 32.4902L8.08474 32.7285L8.1242 32.9661L8.16609 33.2033L8.21037 33.44L8.25706 33.676L8.30613 33.9116L8.3576 34.1464L8.41144 34.3807L8.46765 34.6143L8.52622 34.8472L8.58716 35.0795L8.65041 35.3109L8.71604 35.5417L8.78398 35.7717L8.85423 36.0009L8.92681 36.2293L9.00166 36.4568L9.07881 36.6835L9.15825 36.9093L9.23995 37.1342L9.32389 37.3581L9.41014 37.5812L9.49856 37.8032L9.58922 38.0243L9.68212 38.2444L9.7772 38.4633L9.8745 38.6814L9.97396 38.8983L10.0756 39.1141L10.1794 39.3288L10.2853 39.5423L10.3933 39.7548L10.5035 39.966L10.6158 40.1761L10.7302 40.3849L10.8466 40.5925L10.9651 40.7988L11.0856 41.0039L11.2082 41.2076L11.3328 41.41L11.4594 41.6112L11.588 41.8108L11.7186 42.0093L11.8511 42.2063L11.9856 42.4018L12.122 42.5961L12.2603 42.7888L12.4005 42.9801L12.5426 43.1699L12.6865 43.3581L12.8324 43.5449L12.98 43.73L13.1294 43.9137L13.2807 44.096L13.4337 44.2765L13.5885 44.4554L13.745 44.6327L13.9034 44.8084L14.0633 44.9823L14.225 45.1547L14.3883 45.3254L14.5533 45.4944L14.72 45.6617L14.8882 45.8272L15.0582 45.9911L15.2296 46.1531L15.4026 46.3135L15.5772 46.472L15.7533 46.6287L15.9308 46.7835L16.1099 46.9366L16.2906 47.0878L16.4724 47.2371L16.6559 47.3847L16.8407 47.5302L17.0269 47.674L17.2145 47.8159L17.4035 47.9558L17.5937 48.0937L17.7853 48.2297L17.978 48.3638L18.1722 48.496L18.3675 48.626L18.5642 48.7542L18.7619 48.8804L18.9609 49.0044L19.1611 49.1266L19.3622 49.2467L19.5647 49.3648L19.7681 49.4807L19.9727 49.5947L20.1782 49.7065L20.3849 49.8163L20.5925 49.924L20.801 50.0297L21.0107 50.1331L21.2213 50.2345L21.4327 50.3338L21.645 50.431L21.8581 50.5259L22.0723 50.6188L22.2871 50.7095L22.5029 50.7981L22.7193 50.8845L22.9365 50.9686L23.1546 51.0508L23.3732 51.1306L23.5925 51.2082L23.8127 51.2837L24.0334 51.3571L24.2548 51.4281L24.4765 51.497L24.6992 51.5636L24.9222 51.6281L25.1458 51.6902L25.37 51.7503L25.5945 51.808L25.8196 51.8635L26.045 51.9168L26.271 51.9679L26.4973 52.0166L26.7238 52.0632L26.9509 52.1075L27.1783 52.1496L27.4059 52.1894L27.6338 52.2269L27.8619 52.2622L28.0904 52.2952L28.319 52.326L28.5477 52.3546L28.7767 52.3808L29.0058 52.4048L29.235 52.4266L29.4643 52.446L29.6937 52.4633L29.923 52.4783L30.1525 52.491L30.3819 52.5014L30.6112 52.5097L30.8406 52.5157L31.0699 52.5193L31.299 52.5207L31.5281 52.5199L31.7571 52.5169L31.9857 52.5117L32.2143 52.5041L32.4427 52.4944L32.6709 52.4824L32.8986 52.4681L33.1262 52.4518L33.3536 52.4331L33.5806 52.4122L33.8071 52.3891L34.0334 52.3638L34.2592 52.3364L34.4846 52.3067L34.7096 52.2747L34.9342 52.2407L35.1582 52.2044L35.3818 52.166L35.6049 52.1254L35.8273 52.0826L36.0492 52.0378L36.2706 51.9907L36.4913 51.9415L36.7113 51.8902L36.9308 51.8367L37.1495 51.7812L37.3676 51.7234L37.5848 51.6636L37.8015 51.6017L38.0173 51.5377L38.2324 51.4717L38.4466 51.4036L38.6601 51.3334L38.8727 51.2612L39.0842 51.1869L39.2952 51.1105L39.5051 51.0323L39.7141 50.9519L39.9221 50.8696L40.1291 50.7853L40.3352 50.699L40.5403 50.6107L40.7444 50.5205L40.9472 50.4283L41.1493 50.3342L41.3501 50.2381L41.5498 50.1403L41.7485 50.0403L41.9459 49.9386L42.1423 49.8351L42.3376 49.7295L42.5314 49.6222L42.7241 49.5131L42.9155 49.4022L43.106 49.2893L43.2948 49.1748L43.4827 49.0584L43.6689 48.9403L43.854 48.8204L44.0378 48.6987L44.2203 48.5752L44.4011 48.4503L44.5806 48.3234L44.7589 48.195L44.9356 48.0649L45.1111 47.933L45.2848 47.7998L45.4574 47.6645L45.6282 47.528L45.7975 47.3898L45.9657 47.2499L46.132 47.1084L46.2967 46.9656L46.46 46.821L46.6216 46.6751L46.7818 46.5276L46.9403 46.3787L47.097 46.2284L47.2523 46.0764L47.4059 45.923L47.5578 45.7684L47.7081 45.6122L47.8565 45.4549L48.0032 45.2962L48.1485 45.1357L48.2918 44.9744L48.4335 44.8114L48.5733 44.6474L48.7115 44.482L48.8478 44.3155L48.9822 44.1476L49.1151 43.9784L49.2459 43.8083L49.3752 43.6367L49.5023 43.4642L49.6278 43.2904L49.7516 43.1153L49.873 42.9396L49.9929 42.7624L50.1107 42.5845L50.2268 42.4052L50.3412 42.2248L50.4532 42.0438L50.5635 41.8617L50.6719 41.6781L50.7782 41.4943L50.8827 41.3091L50.9853 41.123L51.0857 40.9364L51.1843 40.7485L51.2809 40.5597L51.3753 40.3708L51.468 40.1803L51.5586 39.9892L51.6471 39.7975L51.7336 39.605L51.8182 39.4118L51.9006 39.2179L51.9811 39.0231L52.0595 38.8277L52.1358 38.6321L52.2101 38.4351L52.2822 38.2381L52.3525 38.0402L52.4206 37.8418L52.4867 37.6428L52.5504 37.4438L52.6124 37.2434L52.6721 37.0432L52.7297 36.8423L52.7854 36.6412L52.8389 36.4392L52.8901 36.2373L52.9395 36.0347L52.9866 35.8317L53.0317 35.6286L53.0747 35.4249L53.1155 35.2214L53.1542 35.0169L53.1908 34.813L53.2253 34.6083L53.2576 34.4034L53.2879 34.1986L53.3161 33.9933L53.342 33.7883L53.366 33.5824L53.3877 33.3773L53.4074 33.1715L53.4248 32.9661L53.4403 32.76L53.4536 32.5548L53.4648 32.3489L53.4738 32.1428L53.4807 31.9373L53.4857 31.7321L53.4883 31.5262L53.489 31.3207L53.4875 31.1154L53.4839 30.9103L53.4782 30.7052L53.4703 30.5009L53.4605 30.2957L53.4485 30.0915L53.4344 29.8874L53.4183 29.6838L53.4001 29.4799L53.3798 29.2769L53.3575 29.0738L53.333 28.8713L53.3065 28.669L53.278 28.4673L53.2473 28.2655L53.2146 28.0647L53.18 27.8645L53.1433 27.6641L53.1044 27.4645L53.0637 27.2656L53.0208 27.0666L52.9762 26.8691L52.9293 26.6712L52.8807 26.4748L52.8297 26.278L52.777 26.0828L52.7223 25.8878L52.6656 25.6931L52.607 25.4997L52.5464 25.307L52.4837 25.1144L52.4194 24.9232L52.3529 24.7322L52.2847 24.5424L52.2144 24.353L52.1424 24.1649L52.0683 23.9771L51.9924 23.7903L51.9148 23.6048L51.8353 23.42L51.7536 23.2355L51.6707 23.0527L51.5854 22.8701L51.4986 22.6892L51.4099 22.509L51.3193 22.3294L51.2271 22.1513L51.133 21.974L51.0371 21.7975L50.9399 21.6227L50.8405 21.4483L50.7396 21.2754L50.6367 21.1033L50.5326 20.9329L50.4262 20.763L50.3187 20.5946L50.2091 20.427L50.0981 20.2609L49.9856 20.0962L49.8711 19.9322L49.7552 19.7697L49.6378 19.6083L49.5187 19.4485L49.3981 19.2895L49.2759 19.1322L49.1522 18.9759L49.027 18.8211L48.9002 18.6676L48.7719 18.5154L48.6421 18.3646L48.511 18.2151L48.3786 18.067L48.2445 17.9204L48.1087 17.7749L47.9723 17.6314L47.8336 17.4887L47.6942 17.348L47.5533 17.2083L47.4111 17.0704L47.2671 16.9336L47.1225 16.7989L46.9761 16.6652L46.8285 16.5332L46.6801 16.4029L46.5302 16.274L46.3786 16.1464L46.2262 16.0206L46.0727 15.8964L45.9179 15.7738L45.7619 15.6527L45.6051 15.5335L45.4465 15.4153L45.2874 15.2994L45.127 15.1849L44.9655 15.0719L44.8032 14.9608L44.6392 14.8509L44.4752 14.7434L44.3093 14.637L44.143 14.5325L43.9752 14.4296L43.8068 14.3285L43.6375 14.2292L43.4675 14.1317L43.296 14.0355L43.1244 13.9415L42.9513 13.849L42.7776 13.7584L42.6033 13.6696L42.4278 13.5824L42.2517 13.4969L42.0749 13.4135L41.8972 13.3316L41.7191 13.2517L41.5401 13.1735L41.3547 13.0947L41.1803 13.0227L40.9989 12.9497L40.8177 12.879L40.6351 12.8097L40.4524 12.7426L40.269 12.6771L40.0852 12.6136L39.9006 12.5517L39.7158 12.4919L39.5302 12.4339L39.3443 12.3777L39.1582 12.3235L38.9713 12.271L38.7837 12.2204L38.5965 12.1717L38.4088 12.125L38.2199 12.0799L38.0317 12.0369L37.8425 11.9957L37.6534 11.9564L37.4635 11.9189L37.274 11.8834L37.0839 11.8497L36.894 11.818L36.7031 11.788L36.5127 11.7601L36.322 11.734L36.131 11.7097L35.94 11.6874L35.7489 11.667L35.5578 11.6484L35.3665 11.6317L35.1751 11.617L34.9835 11.604L34.7925 11.593L34.6014 11.5839L34.4096 11.5767L34.2188 11.5713L34.0277 11.5678L33.8367 11.5662L33.6454 11.5665L33.607 11.5669L33.6673 16.6547L33.7758 16.6542L33.9155 16.655L34.0551 16.6571L34.1949 16.6607L34.3348 16.6656L34.4747 16.672L34.6146 16.6798L34.7546 16.6888L34.8946 16.6993L35.0347 16.7112L35.1747 16.7245L35.3146 16.7391L35.4546 16.7552L35.5945 16.7727L35.7343 16.7914L35.8741 16.8118L36.0137 16.8334L36.1532 16.8564L36.2927 16.8809L36.4319 16.9067L36.571 16.934L36.71 16.9626L36.8488 16.9926L36.9874 17.024L37.1257 17.0569L37.2639 17.0911L37.4017 17.1266L37.5393 17.1636L37.6767 17.202L37.8138 17.2418L37.9506 17.2829L38.087 17.3253L38.2231 17.3693L38.3589 17.4145L38.4944 17.4613L38.6293 17.5093L38.764 17.5587L38.8982 17.6094L39.0321 17.6616L39.1655 17.7151L39.2985 17.7699L39.4309 17.8262L39.563 17.8838L39.6945 17.9427L39.8255 18.0029L39.9559 18.0645L40.086 18.1275L40.2154 18.1918L40.3442 18.2574L40.4725 18.3244L40.6002 18.3925L40.7273 18.4621L40.8538 18.5329L40.9796 18.6051L41.1048 18.6786L41.2294 18.7534L41.3532 18.8294L41.4763 18.9067L41.5988 18.9854L41.7206 19.0653L41.8416 19.1463L41.9619 19.2287L42.0815 19.3124L42.2002 19.3972L42.3181 19.4834L42.4353 19.5708L42.5517 19.6593L42.6671 19.7492L42.7819 19.8402L42.8957 19.9323L43.0087 20.0258L43.1208 20.1204L43.2321 20.2161L43.3424 20.313L43.4518 20.4111L43.5603 20.5104L43.6677 20.6108L43.7744 20.7124L43.8799 20.815L43.9846 20.9188L44.0882 21.0237L44.1909 21.1298L44.2926 21.2368L44.3931 21.3451L44.4926 21.4543L44.5911 21.5647L44.6886 21.676L44.785 21.7884L44.8803 21.9019L44.9745 22.0163L45.0675 22.1319L45.1595 22.2484L45.2503 22.3659L45.34 22.4844L45.4285 22.6039L45.5159 22.7242L45.6021 22.8456L45.687 22.968L45.7709 23.0912L45.8534 23.2154L45.9348 23.3404L46.0149 23.4665L46.0938 23.5933L46.1716 23.721L46.248 23.8495L46.3231 23.9791L46.3969 24.1092L46.4695 24.2404L46.5407 24.3723L46.6107 24.505L46.6794 24.6385L46.7466 24.7728L46.8126 24.9079L46.8773 25.0437L46.9406 25.1801L47.0025 25.3175L47.063 25.4554L47.1223 25.5941L47.18 25.7335L47.2365 25.8735L47.2914 26.0142L47.345 26.1554L47.3971 26.2975L47.4478 26.44L47.4972 26.5833L47.5452 26.727L47.5915 26.8714L47.6365 27.0163L47.68 27.1618L47.7221 27.3078L47.7627 27.4543L47.8017 27.6014L47.8393 27.7489L47.8754 27.8969L47.91 28.0454L47.9432 28.1943L47.9747 28.3437L48.0048 28.4934L48.0333 28.6436L48.0603 28.7942L48.0859 28.9452L48.1098 29.0964L48.1322 29.2482L48.1531 29.4L48.1724 29.5523L48.1902 29.705L48.2063 29.8579L48.221 30.011L48.2341 30.1645L48.2456 30.3181L48.2556 30.472L48.2638 30.626L48.2706 30.7803L48.2758 30.9348L48.2794 31.0894L48.2814 31.2442L48.2818 31.3991L48.2806 31.554L48.2778 31.7091L48.2734 31.8643L48.2674 32.0197L48.2598 32.1749L48.2506 32.3302L48.2399 32.4857L48.2275 32.641L48.2134 32.7964L48.1978 32.9517L48.1805 33.1069L48.1617 33.2623L48.1412 33.4173L48.1191 33.5724L48.0954 33.7274L48.0701 33.8822L48.0433 34.0368L48.0146 34.1914L47.9846 34.3458L47.9527 34.4999L47.9193 34.6539L47.8845 34.8077L47.8478 34.9612L47.8096 35.1144L47.7698 35.2675L47.7284 35.4201L47.6855 35.5726L47.6409 35.7246L47.5947 35.8763L47.5469 36.0278L47.4974 36.1789L47.4464 36.3294L47.3938 36.4797L47.3398 36.6296L47.284 36.7789L47.2266 36.9279L47.1678 37.0764L47.1073 37.2245L47.0453 37.3721L46.9817 37.519L46.9166 37.6656L46.8499 37.8116L46.7816 37.957L46.7119 38.1018L46.6405 38.2461L46.5676 38.3897L46.4932 38.5328L46.4173 38.6751L46.3398 38.8169L46.2609 38.958L46.1805 39.0984L46.0985 39.238L46.015 39.3771L45.9301 39.5153L45.8437 39.653L45.7557 39.7897L45.6664 39.9257L45.5755 40.0608L45.4833 40.1953L45.3895 40.3289L45.2944 40.4616L45.1977 40.5935L45.0998 40.7246L45.0003 40.8548L44.8994 40.9841L44.7972 41.1124L44.6935 41.2399L44.5885 41.3664L44.4821 41.492L44.3743 41.6166L44.2652 41.7403L44.1547 41.8629L44.0429 41.9845L43.9297 42.1051L43.8154 42.2248L43.6996 42.3433L43.5826 42.4608L43.4641 42.5771L43.3446 42.6926L43.2236 42.8068L43.1015 42.9198L42.9781 43.0319L42.8534 43.1426L42.7276 43.2523L42.6005 43.3609L42.4723 43.4682L42.3428 43.5744L42.2122 43.6793L42.0803 43.783L41.9473 43.8855L41.8132 43.9868L41.678 44.0868L41.5416 44.1855L41.4042 44.2831L41.2656 44.3792L41.126 44.4741L40.9851 44.5677L40.8434 44.6599L40.7006 44.7509L40.5568 44.8404L40.4118 44.9286L40.2661 45.0155L40.1191 45.1009L39.9714 45.1849L39.8226 45.2676L39.6728 45.3489L39.5221 45.4288L39.3705 45.5072L39.218 45.5841L39.0646 45.6596L38.9103 45.7338L38.7551 45.8063L38.5991 45.8774L38.4423 45.947L38.2847 46.0152L38.1262 46.0817L37.967 46.1468L37.807 46.2104L37.6462 46.2725L37.4847 46.333L37.3225 46.392L37.1595 46.4494L36.9958 46.5051L36.8315 46.5594L36.6665 46.612L36.5009 46.6631L36.3346 46.7127L36.1677 46.7604L36.0003 46.8068L35.8321 46.8514L35.6635 46.8944L35.4943 46.9358L35.3246 46.9756L35.1542 47.0136L34.9835 47.0501L34.8122 47.0848L34.6405 47.118L34.4684 47.1495L34.2958 47.1794L34.1227 47.2074L33.9494 47.2338L33.7756 47.2585L33.6013 47.2816L33.4268 47.303L33.252 47.3226L33.0769 47.3405L32.9014 47.3568L32.7257 47.3713L32.5497 47.3841L32.3735 47.3951L32.197 47.4044L32.0203 47.412L31.8434 47.4179L31.6664 47.422L31.4892 47.4244L31.3118 47.4251L31.1344 47.424L30.9569 47.4211L30.7792 47.4166L30.6015 47.4102L30.4238 47.402L30.246 47.3922L30.0683 47.3806L29.8904 47.3673L29.7127 47.3521L29.535 47.3352L29.3573 47.3166L29.1797 47.2962L29.0023 47.2741L28.8249 47.2502L28.6477 47.2245L28.4707 47.1971L28.2938 47.1679L28.117 47.1369L27.9405 47.1043L27.7642 47.0698L27.5883 47.0335L27.4124 46.9955L27.237 46.9559L27.0618 46.9143L26.8869 46.8711L26.7124 46.8261L26.5382 46.7793L26.3643 46.7309L26.191 46.6807L26.018 46.6288L25.8453 46.5752L25.6732 46.5196L25.5016 46.4625L25.3303 46.4037L25.1596 46.3431L24.9895 46.2808L24.8198 46.2168L24.6508 46.1511L24.4822 46.0837L24.3143 46.0145L24.1469 45.9437L23.9803 45.8713L23.8143 45.797L23.6488 45.7211L23.4842 45.6436L23.3202 45.5644L23.1568 45.4835L22.9942 45.401L22.8325 45.3169L22.6714 45.231L22.5111 45.1435L22.3517 45.0545L22.193 44.9637L22.0351 44.8715L21.8782 44.7775L21.722 44.6819L21.5668 44.5849L21.4126 44.4861L21.2592 44.3859L21.1068 44.2839L20.9553 44.1805L20.8048 44.0756L20.6553 43.9691L20.5067 43.861L20.3592 43.7515L20.2127 43.6403L20.0673 43.5277L19.923 43.4136L19.7798 43.298L19.6376 43.1809L19.4965 43.0623L19.3566 42.9424L19.2179 42.8209L19.0803 42.698L18.9439 42.5737L18.8088 42.448L18.6747 42.3209L18.5419 42.1923L18.4104 42.0624L18.2802 41.9312L18.1512 41.7984L18.0234 41.6645L17.8969 41.5292L17.772 41.3926L17.6482 41.2546L17.5257 41.1153L17.4047 40.9748L17.2849 40.833L17.1667 40.6899L17.0497 40.5455L16.9343 40.4L16.8202 40.2532L16.7076 40.1051L16.5964 39.9559L16.4866 39.8056L16.3784 39.654L16.2718 39.5013L16.1665 39.3475L16.0628 39.1925L15.9607 39.0365L15.86 38.8793L15.761 38.721L15.6635 38.5617L15.5675 38.4013L15.4732 38.24L15.3805 38.0774L15.2894 37.9141L15.1999 37.7496L15.1121 37.5843L15.0259 37.4179L14.9413 37.2506L14.8585 37.0823L14.7773 36.9131L14.6978 36.7431L14.62 36.5721L14.5439 36.4004L14.4695 36.2277L14.3969 36.0541L14.326 35.8799L14.2569 35.7049L14.1895 35.5289L14.1239 35.3523L14.0601 35.1749L13.998 34.9967L13.9378 34.8179L13.8793 34.6384L13.8227 34.4581L13.7679 34.2774L13.7149 34.0958L13.6637 33.9137L13.6144 33.731L13.567 33.5475L13.5214 33.3637L13.4776 33.1792L13.4357 32.9942L13.3957 32.8086L13.3576 32.6227L13.3214 32.4362L13.2871 32.2492L13.2547 32.0617L13.2241 31.8739L13.1955 31.6857L13.1688 31.4971L13.1441 31.3081L13.1213 31.1186L13.1004 30.929L13.0814 30.739L13.0644 30.5487L13.0493 30.358L13.0362 30.1673L13.025 29.9761L13.0158 29.7849L13.0085 29.5934L13.0032 29.4018L12.9999 29.2099L12.9986 29.0179L12.9992 28.8258L13.0018 28.6336L13.0063 28.4414L13.0129 28.249L13.0214 28.0565L13.0319 27.8642L13.0444 27.6717L13.0589 27.4794L13.0753 27.2869L13.0938 27.0947L13.1142 26.9023L13.1367 26.7102L13.1611 26.5182L13.1875 26.3262L13.2158 26.1344L13.2462 25.9429L13.2786 25.7514L13.3129 25.5603L13.3492 25.3693L13.3876 25.1785L13.4278 24.9882L13.4701 24.798L13.5144 24.6081L13.5606 24.4186L13.6088 24.2294L13.6589 24.0407L13.7111 23.8522L13.7651 23.6643L13.8212 23.4767L13.8792 23.2895L13.9392 23.1028L14.0011 22.9167L14.065 22.731L14.1308 22.5459L14.1986 22.3612L14.2683 22.1771L14.3399 21.9937L14.4134 21.8108L14.4889 21.6286L14.5663 21.447L14.6455 21.266L14.7267 21.0858L14.8098 20.9062L14.8948 20.7273L14.9816 20.5492L15.0704 20.3719L15.161 20.1952L15.2535 20.0195L15.3478 19.8445L15.444 19.6704L15.542 19.4971L15.6418 19.3246L15.7435 19.1531L15.847 18.9825L15.9523 18.8127L16.0595 18.644L16.1684 18.4761L16.2791 18.3093L16.3915 18.1435L16.5058 17.9787L16.6217 17.8148L16.7394 17.652L16.8589 17.4904L16.9801 17.3297L17.1031 17.1703L17.2277 17.0119L17.354 16.8547L17.4819 16.6987L17.6116 16.5437L17.7429 16.39L17.8759 16.2374L18.0105 16.0862L18.1468 15.9362L18.2846 15.7874L18.4241 15.6399L18.5652 15.4936L18.7077 15.3488L18.8519 15.2051L18.9976 15.0629L19.145 14.922L19.2938 14.7824L19.4441 14.6443L19.596 14.5075L19.7493 14.3723L19.904 14.2384L20.0603 14.1059L20.218 13.9749L20.3771 13.8454L20.5376 13.7174L20.6996 13.5909L20.8629 13.4659L21.0276 13.3425L21.1937 13.2206L21.361 13.1003L21.5297 12.9815L21.6998 12.8644L21.8711 12.7488L22.0436 12.635L22.2176 12.5227L22.3927 12.4121L22.569 12.3031L22.7466 12.1958L22.9254 12.0902L23.1052 11.9863L23.2864 11.8841L23.4686 11.7836L23.6519 11.6849L23.8364 11.5879L24.0219 11.4927L24.2086 11.3992L24.3963 11.3075L24.585 11.2176L24.7748 11.1296L24.9656 11.0433L25.1574 10.9589L25.3501 10.8763L25.5438 10.7956L25.7384 10.7167L25.9338 10.6397L26.1303 10.5646L26.3276 10.4913L26.5258 10.42L26.7248 10.3506L26.9246 10.283L27.1252 10.2175L27.3264 10.1538L27.5286 10.0921L27.7315 10.0324L27.9352 9.97457L28.1393 9.91874L28.3443 9.8649L28.55 9.81304L28.7563 9.76317L28.9632 9.71532L29.1707 9.66945L29.3787 9.6256L29.5873 9.58378L29.7966 9.54399L30.0062 9.50623L30.2164 9.4705L30.4271 9.43682L30.6383 9.4052L30.8498 9.37563L31.0617 9.34812L31.1407 9.33864ZM31.2302 16.8849L31.1692 11.7412L30.9955 11.7655L30.8088 11.7934L30.6219 11.8233L30.4362 11.8549L30.2502 11.8884L30.0652 11.9236L29.8806 11.9606L29.6966 11.9993L29.5131 12.0399L29.3299 12.0823L29.1473 12.1264L28.9654 12.1723L28.7837 12.22L28.6092 12.2676L28.4233 12.3205L28.2437 12.3733L28.0649 12.4279L27.8871 12.4841L27.7097 12.5421L27.5329 12.6019L27.3569 12.6632L27.1819 12.7262L27.0075 12.791L26.8339 12.8573L26.661 12.9255L26.4894 12.9951L26.3179 13.0666L26.1476 13.1395L25.9781 13.2141L25.8099 13.2902L25.642 13.3681L25.4751 13.4475L25.3097 13.5283L25.1445 13.611L24.981 13.695L24.8178 13.7809L24.6562 13.8678L24.4949 13.9568L24.3352 14.0468L24.1765 14.1385L24.0186 14.2318L23.8619 14.3265L23.7061 14.4229L23.5518 14.5203L23.3982 14.6195L23.246 14.72L23.095 14.8218L22.9449 14.9252L22.7959 15.0301L22.6485 15.1359L22.5019 15.2436L22.3566 15.3525L22.2126 15.4627L22.0699 15.5741L21.9281 15.6871L21.7879 15.8012L21.649 15.9166L21.5111 16.0336L21.3749 16.1514L21.2396 16.2708L21.1057 16.3914L20.9733 16.5131L20.8423 16.636L20.7123 16.7603L20.5841 16.8854L20.4571 17.0119L20.3313 17.1397L20.2071 17.2684L20.0842 17.3984L19.9628 17.5294L19.8429 17.6615L19.7243 17.7947L19.607 17.9291L19.4918 18.0643L19.3775 18.2007L19.2648 18.3382L19.1537 18.4765L19.0441 18.6157L18.9357 18.7563L18.8291 18.8975L18.724 19.0398L18.6204 19.1831L18.5183 19.3272L18.4179 19.472L18.319 19.6179L18.2216 19.7648L18.1258 19.9124L18.0317 20.0607L17.9391 20.2099L17.8481 20.3602L17.7586 20.5108L17.6709 20.6625L17.5847 20.8149L17.5003 20.9677L17.4173 21.1216L17.3359 21.2762L17.2564 21.4312L17.1784 21.5872L17.1021 21.7437L17.0275 21.9007L16.9545 22.0585L16.8832 22.2168L16.8135 22.3757L16.7455 22.5352L16.6794 22.6952L16.6148 22.8557L16.5519 23.0169L16.4906 23.1785L16.4313 23.3405L16.3733 23.5032L16.3174 23.666L16.263 23.8294L16.2104 23.9933L16.1594 24.1576L16.1103 24.3221L16.0628 24.487L16.0171 24.6522L15.9731 24.8179L15.9308 24.9838L15.8903 25.15L15.8515 25.3166L15.8144 25.4832L15.7791 25.6503L15.7455 25.8175L15.7137 25.9848L15.6836 26.1525L15.6552 26.3202L15.6286 26.4882L15.6037 26.6561L15.5806 26.8243L15.5592 26.9926L15.5396 27.161L15.5217 27.3293L15.5055 27.4979L15.4911 27.6664L15.4784 27.8348L15.4675 28.0034L15.4583 28.1719L15.4508 28.3403L15.4451 28.5087L15.4411 28.677L15.4388 28.8452L15.4383 29.0135L15.4394 29.1815L15.4424 29.3493L15.447 29.517L15.4533 29.6845L15.4614 29.8519L15.4712 30.0191L15.4826 30.1859L15.4958 30.3527L15.5107 30.5191L15.5273 30.6852L15.5456 30.8511L15.5655 31.0167L15.5872 31.182L15.6105 31.3468L15.6355 31.5114L15.6622 31.6754L15.6905 31.8393L15.7205 32.0028L15.7522 32.1656L15.7855 32.3282L15.8204 32.4902L15.857 32.6519L15.8952 32.8129L15.935 32.9735L15.9765 33.1337L16.0195 33.2933L16.0641 33.4522L16.1105 33.6108L16.1582 33.7686L16.2078 33.926L16.2587 34.0828L16.3113 34.2388L16.3655 34.3941L16.4211 34.5489L16.4784 34.7031L16.5372 34.8565L16.5975 35.0092L16.6593 35.1612L16.7226 35.3126L16.7875 35.4631L16.8539 35.6129L16.9216 35.762L16.991 35.9101L17.0618 36.0576L17.1339 36.2043L17.2077 36.3501L17.2828 36.4951L17.3593 36.6393L17.4373 36.7825L17.5166 36.925L17.5974 37.0665L17.6796 37.207L17.7632 37.3467L17.8481 37.4855L17.9343 37.6233L18.0219 37.7601L18.111 37.8961L18.2011 38.0309L18.2928 38.1649L18.3856 38.2977L18.4798 38.4297L18.5753 38.5605L18.6721 38.6903L18.77 38.819L18.8693 38.9468L18.9697 39.0734L19.0714 39.1989L19.1743 39.3234L19.2784 39.4468L19.3837 39.5688L19.4902 39.6901L19.5977 39.8099L19.7065 39.9288L19.8163 40.0463L19.9273 40.1628L20.0394 40.278L20.1527 40.3921L20.2669 40.505L20.3823 40.6167L20.4987 40.7272L20.616 40.8363L20.7346 40.9444L20.854 41.051L20.9745 41.1564L21.096 41.2607L21.2185 41.3636L21.3419 41.4653L21.4662 41.5655L21.5915 41.6645L21.7176 41.7622L21.8448 41.8587L21.9728 41.9538L22.1015 42.0475L22.2312 42.1399L22.3618 42.2309L22.4932 42.3206L22.6255 42.409L22.7584 42.4959L22.8922 42.5815L23.0268 42.6658L23.162 42.7486L23.2981 42.8301L23.4349 42.9101L23.5723 42.9886L23.7106 43.0658L23.8493 43.1415L23.9889 43.216L24.1291 43.2889L24.2698 43.3602L24.4113 43.4304L24.5535 43.4989L24.696 43.5662L24.8391 43.6318L24.983 43.6961L25.1272 43.7588L25.272 43.82L25.4173 43.8799L25.5632 43.9382L25.7094 43.9951L25.8562 44.0504L26.0034 44.1043L26.1511 44.1568L26.2991 44.2076L26.4476 44.2572L26.5965 44.3049L26.7457 44.3514L26.8953 44.3963L27.0452 44.4396L27.1953 44.4816L27.3459 44.5219L27.4967 44.5609L27.6478 44.5982L27.7991 44.634L27.9507 44.6683L28.1026 44.7012L28.2546 44.7325L28.4068 44.7622L28.5593 44.7904L28.7117 44.8172L28.8645 44.8424L29.0174 44.866L29.1703 44.8882L29.3234 44.9089L29.4765 44.928L29.6297 44.9456L29.7829 44.9617L29.9362 44.9762L30.0896 44.9893L30.2429 45.0007L30.3963 45.0108L30.5495 45.0192L30.7027 45.0263L30.856 45.0317L31.0091 45.0357L31.162 45.0381L31.315 45.039L31.4678 45.0385L31.6205 45.0364L31.773 45.0329L31.9253 45.0279L32.0776 45.0213L32.2295 45.0132L32.3812 45.0038L32.5327 44.9927L32.684 44.9802L32.835 44.9662L32.9858 44.9508L33.1364 44.9339L33.2865 44.9155L33.4364 44.8957L33.5859 44.8745L33.7351 44.8518L33.8839 44.8275L34.0322 44.802L34.1804 44.7748L34.328 44.7463L34.4752 44.7165L34.6221 44.6851L34.7683 44.6524L34.9142 44.6183L35.0596 44.5826L35.2045 44.5457L35.3489 44.5074L35.4928 44.4676L35.6362 44.4265L35.779 44.384L35.9212 44.3402L36.0628 44.295L36.204 44.2484L36.3445 44.2004L36.4844 44.1512L36.6236 44.1006L36.7622 44.0487L36.9001 43.9955L37.0373 43.9409L37.174 43.885L37.3099 43.8279L37.445 43.7694L37.5796 43.7098L37.7133 43.6488L37.8464 43.5865L37.9787 43.523L38.1099 43.4585L38.2409 43.3923L38.3707 43.3252L38.5 43.2567L38.628 43.1872L38.7555 43.1164L38.8823 43.0444L39.0079 42.9712L39.1329 42.8968L39.257 42.8213L39.38 42.7446L39.5024 42.6667L39.6236 42.5879L39.744 42.5078L39.8637 42.4265L39.9822 42.3442L40.0996 42.261L40.2164 42.1763L40.332 42.091L40.4467 42.0044L40.5605 41.9166L40.6729 41.8281L40.7848 41.7383L40.8956 41.6475L41.0048 41.5559L41.1137 41.4629L41.2212 41.3693L41.3275 41.2748L41.4332 41.1788L41.5373 41.0824L41.6406 40.9849L41.7428 40.8864L41.8437 40.7871L41.9437 40.6867L42.0426 40.5855L42.1403 40.4834L42.2367 40.3805L42.3321 40.2767L42.4265 40.1721L42.5194 40.0668L42.6115 39.9603L42.7022 39.8533L42.7916 39.7455L42.8801 39.6366L42.9672 39.5274L43.0532 39.4171L43.138 39.3062L43.2216 39.1944L43.3038 39.082L43.3848 38.9692L43.4648 38.8551L43.5433 38.7407L43.6206 38.6256L43.6969 38.5097L43.7714 38.3935L43.8452 38.2763L43.9175 38.1585L43.9885 38.0403L44.0582 37.9214L44.1268 37.8018L44.1938 37.6821L44.2598 37.5612L44.3244 37.4402L44.3875 37.3187L44.4496 37.1962L44.5101 37.0741L44.5696 36.9505L44.6273 36.8274L44.6843 36.7029L44.7394 36.5787L44.7936 36.4535L44.8463 36.3284L44.8976 36.2027L44.9476 36.0765L44.9963 35.9499L45.0435 35.8233L45.0896 35.6959L45.1341 35.5684L45.1774 35.4406L45.2193 35.3125L45.2599 35.1839L45.2992 35.0551L45.337 34.9263L45.3734 34.7969L45.4084 34.6675L45.4423 34.5377L45.4746 34.4078L45.5056 34.2779L45.5353 34.1473L45.5635 34.0169L45.5905 33.8863L45.616 33.7557L45.6402 33.6249L45.663 33.4935L45.6844 33.3626L45.7045 33.2314L45.7231 33.1L45.7404 32.9689L45.7564 32.8375L45.771 32.7057L45.7842 32.5749L45.7962 32.443L45.8067 32.3116L45.8158 32.1805L45.8236 32.049L45.83 31.9177L45.8351 31.7866L45.8388 31.6551L45.8411 31.5244L45.8421 31.3931L45.8417 31.2623L45.8401 31.1314L45.8371 31.0011L45.8327 30.8705L45.8269 30.7402L45.8199 30.6104L45.8115 30.4802L45.8018 30.3505L45.7909 30.2213L45.7785 30.0918L45.7648 29.9631L45.7497 29.8341L45.7335 29.7058L45.7159 29.5776L45.697 29.4496L45.6768 29.322L45.6554 29.1949L45.6326 29.0681L45.6085 28.9416L45.5831 28.815L45.5565 28.6894L45.5286 28.5641L45.4995 28.439L45.469 28.3141L45.4375 28.1903L45.4045 28.0661L45.3704 27.943L45.335 27.82L45.2984 27.6978L45.2606 27.5757L45.2214 27.4542L45.1812 27.3335L45.1398 27.2131L45.097 27.0929L45.0533 26.9738L45.0082 26.8549L44.962 26.7369L44.9146 26.6191L44.866 26.5018L44.8164 26.3856L44.7654 26.2695L44.7135 26.1544L44.6604 26.0399L44.606 25.9257L44.5505 25.8121L44.4942 25.6997L44.4365 25.5875L44.3779 25.4763L44.3181 25.3658L44.2572 25.2555L44.1954 25.1465L44.1323 25.0378L44.0683 24.9301L44.0031 24.8229L43.9372 24.7168L43.8698 24.6109L43.8018 24.5063L43.7326 24.4024L43.6624 24.2992L43.5911 24.1966L43.5189 24.095L43.446 23.9944L43.3717 23.8941L43.2968 23.7951L43.2206 23.6967L43.144 23.5994L43.0659 23.5027L42.9871 23.407L42.9074 23.312L42.8269 23.2179L42.7456 23.125L42.663 23.0326L42.58 22.9415L42.4958 22.8509L42.4112 22.7618L42.3252 22.673L42.2388 22.5855L42.1512 22.4986L42.0631 22.413L41.9743 22.3283L41.8846 22.2445L41.7939 22.1616L41.7026 22.0798L41.6106 21.999L41.5176 21.9189L41.4245 21.8404L41.3302 21.7622L41.2353 21.6854L41.1397 21.6097L41.0433 21.5346L40.9464 21.4609L40.8491 21.3883L40.7506 21.3164L40.6514 21.2455L40.5523 21.1761L40.4518 21.1073L40.3514 21.0401L40.2501 20.9735L40.1481 20.908L40.0455 20.8436L39.9428 20.7805L39.8389 20.7182L39.735 20.6573L39.6301 20.5971L39.5253 20.5384L39.4196 20.4806L39.3134 20.4238L39.2068 20.3681L39.0999 20.3138L38.9923 20.2603L38.8843 20.208L38.776 20.1569L38.6675 20.107L38.5579 20.0579L38.4487 20.0102L38.3388 19.9636L38.2283 19.918L38.1177 19.8736L38.0069 19.8305L37.8956 19.7884L37.7837 19.7473L37.672 19.7076L37.5597 19.6689L37.447 19.6314L37.3346 19.595L37.2216 19.5599L37.1085 19.5258L36.9946 19.4928L36.8811 19.4611L36.7672 19.4305L36.6532 19.4011L36.539 19.3727L36.4242 19.3456L36.3097 19.3196L36.1953 19.2949L36.0803 19.2712L35.965 19.2485L35.8504 19.2274L35.735 19.2071L35.6198 19.1881L35.5041 19.1701L35.3891 19.1535L35.2732 19.1378L35.1581 19.1236L35.0425 19.1102L34.927 19.0981L34.8116 19.0872L34.6959 19.0774L34.5808 19.0687L34.4649 19.0613L34.3497 19.0549L34.2347 19.0497L34.1189 19.0456L34.004 19.0426L33.889 19.0409L33.7741 19.0402L33.6956 19.0405L33.7551 24.066L33.7906 24.0661L33.8566 24.0671L33.9228 24.0686L33.9891 24.0708L34.0554 24.0738L34.1218 24.0774L34.1882 24.0817L34.2548 24.0868L34.3213 24.0925L34.388 24.0989L34.4547 24.1059L34.5214 24.1136L34.5882 24.1222L34.6549 24.1313L34.7217 24.1412L34.7885 24.1518L34.8554 24.1632L34.922 24.1751L34.9889 24.1879L35.0556 24.2012L35.1222 24.2155L35.1889 24.2302L35.2556 24.2458L35.3221 24.2621L35.3886 24.279L35.455 24.2967L35.5213 24.315L35.5876 24.3341L35.6538 24.3539L35.7198 24.3744L35.7857 24.3957L35.8516 24.4177L35.9172 24.4403L35.9828 24.4636L36.0482 24.4877L36.1134 24.5124L36.1785 24.5379L36.2434 24.5641L36.3081 24.591L36.3727 24.6185L36.4371 24.6469L36.5013 24.6759L36.5653 24.7056L36.6291 24.7361L36.6926 24.7671L36.7559 24.7989L36.8189 24.8315L36.8817 24.8647L36.9443 24.8986L37.0066 24.9332L37.0686 24.9685L37.1304 25.0044L37.1917 25.041L37.253 25.0784L37.3138 25.1165L37.3744 25.1552L37.4345 25.1945L37.4944 25.2346L37.5541 25.2754L37.6133 25.3168L37.6721 25.3589L37.7307 25.4016L37.7889 25.445L37.8466 25.4891L37.904 25.5338L37.9611 25.5792L38.0177 25.6253L38.0739 25.6718L38.1298 25.7192L38.1851 25.7672L38.2401 25.8157L38.2947 25.865L38.3487 25.9149L38.4024 25.9654L38.4555 26.0165L38.5083 26.0683L38.5605 26.1206L38.6123 26.1735L38.6637 26.2271L38.7144 26.2812L38.7647 26.3361L38.8145 26.3914L38.8639 26.4474L38.9126 26.5039L38.9608 26.561L39.0086 26.6187L39.0557 26.677L39.1023 26.7358L39.1483 26.7952L39.1939 26.8552L39.2389 26.9156L39.2832 26.9767L39.3268 27.0382L39.3701 27.1004L39.4127 27.1631L39.4546 27.2263L39.496 27.2899L39.5369 27.3542L39.577 27.4189L39.6165 27.4842L39.6554 27.5499L39.6936 27.6161L39.7312 27.6828L39.7681 27.75L39.8044 27.8176L39.8401 27.8858L39.875 27.9543L39.9093 28.0233L39.9429 28.0927L39.9758 28.1628L40.008 28.233L40.0395 28.3039L40.0704 28.3751L40.1005 28.4467L40.1299 28.5187L40.1585 28.5911L40.1865 28.6639L40.2138 28.7371L40.2403 28.8107L40.2659 28.8848L40.291 28.959L40.3152 29.0337L40.3386 29.1088L40.3614 29.1841L40.3834 29.2599L40.4045 29.336L40.425 29.4123L40.4447 29.489L40.4635 29.566L40.4816 29.6434L40.4989 29.7208L40.5154 29.7988L40.5311 29.877L40.5459 29.9552L40.56 30.034L40.5733 30.113L40.5858 30.192L40.5974 30.2715L40.6082 30.3511L40.6182 30.431L40.6273 30.5111L40.6357 30.5914L40.6432 30.6718L40.6498 30.7524L40.6557 30.8334L40.6606 30.9143L40.6647 30.9955L40.6679 31.0768L40.6705 31.1583L40.6719 31.2399L40.6727 31.3216L40.6725 31.4034L40.6715 31.4854L40.6697 31.5675L40.6669 31.6496L40.6633 31.7319L40.6588 31.8141L40.6534 31.8965L40.6472 31.9789L40.64 32.0615L40.632 32.144L40.6232 32.2265L40.6134 32.3091L40.6027 32.3917L40.5913 32.4744L40.5789 32.5569L40.5656 32.6394L40.5513 32.722L40.5363 32.8045L40.5203 32.887L40.5036 32.9694L40.4857 33.0518L40.4671 33.1341L40.4476 33.2163L40.4271 33.2985L40.4058 33.3806L40.3838 33.4625L40.3606 33.5443L40.3366 33.6259L40.3117 33.7075L40.286 33.789L40.2594 33.8702L40.2319 33.9514L40.2035 34.0323L40.1741 34.113L40.1439 34.1936L40.1129 34.2739L40.0809 34.3542L40.048 34.434L40.0144 34.5138L39.9798 34.5933L39.9442 34.6726L39.9079 34.7515L39.8706 34.8302L39.8324 34.9087L39.7935 34.9869L39.7536 35.0647L39.7129 35.1423L39.6712 35.2195L39.6287 35.2965L39.5855 35.3731L39.5413 35.4494L39.4962 35.5254L39.4504 35.6009L39.4035 35.6762L39.356 35.7511L39.3075 35.8255L39.2582 35.8996L39.2081 35.9732L39.1571 36.0466L39.1053 36.1194L39.0526 36.1918L38.9993 36.2638L38.9449 36.3353L38.8898 36.4064L38.8339 36.477L38.7772 36.5472L38.7197 36.6168L38.6614 36.686L38.6023 36.7547L38.5423 36.8229L38.4816 36.8905L38.4201 36.9577L38.3578 37.0243L38.2948 37.0903L38.2309 37.1559L38.1664 37.2209L38.101 37.2852L38.035 37.3491L37.968 37.4123L37.9004 37.4748L37.8321 37.5369L37.7631 37.5984L37.6933 37.6592L37.6227 37.7194L37.5515 37.7789L37.4795 37.8378L37.4068 37.8961L37.3335 37.9537L37.2595 38.0106L37.1848 38.0669L37.1093 38.1226L37.0333 38.1774L36.9565 38.2316L36.8792 38.2852L36.8011 38.3379L36.7224 38.3901L36.643 38.4414L36.563 38.4921L36.4824 38.542L36.4012 38.5911L36.3193 38.6394L36.2369 38.6871L36.1539 38.734L36.0701 38.78L35.986 38.8254L35.9012 38.8699L35.8159 38.9137L35.7299 38.9565L35.6435 38.9987L35.5565 39.04L35.4689 39.0804L35.3809 39.1201L35.2922 39.1588L35.2032 39.1969L35.1136 39.2341L35.0235 39.2703L34.9328 39.3057L34.8418 39.3403L34.7502 39.374L34.6582 39.4068L34.5658 39.4388L34.4729 39.4698L34.3796 39.5L34.2859 39.5292L34.1918 39.5575L34.0972 39.5851L34.0022 39.6116L33.9069 39.6372L33.8112 39.6619L33.7151 39.6857L33.6186 39.7085L33.5218 39.7304L33.4247 39.7513L33.3272 39.7714L33.2294 39.7905L33.1313 39.8086L33.0329 39.8257L32.9342 39.842L32.8353 39.8571L32.736 39.8714L32.6365 39.8847L32.5367 39.8971L32.4367 39.9084L32.3365 39.9186L32.236 39.9281L32.1354 39.9363L32.0345 39.9438L31.9333 39.9501L31.8321 39.9555L31.7307 39.9599L31.6291 39.9632L31.5273 39.9655L31.4255 39.9668L31.3235 39.9672L31.2214 39.9666L31.1192 39.9648L31.0168 39.962L30.9145 39.9583L30.812 39.9535L30.7093 39.9477L30.6067 39.9409L30.5041 39.933L30.4014 39.9241L30.2987 39.9141L30.1961 39.9032L30.0933 39.8911L29.9907 39.878L29.8879 39.8639L29.7853 39.8489L29.6826 39.8327L29.5801 39.8155L29.4777 39.7972L29.3753 39.7779L29.2729 39.7577L29.1707 39.7363L29.0686 39.7139L28.9666 39.6904L28.8648 39.6659L28.763 39.6404L28.6614 39.6138L28.5601 39.5861L28.4588 39.5575L28.3579 39.5278L28.257 39.4971L28.1564 39.4653L28.056 39.4325L27.9558 39.3987L27.856 39.3638L27.7563 39.3279L27.6568 39.2909L27.5578 39.253L27.4589 39.214L27.3604 39.1739L27.2621 39.1329L27.1643 39.0908L27.0667 39.0477L26.9694 39.0036L26.8727 38.9585L26.776 38.9123L26.6799 38.8652L26.5842 38.817L26.4889 38.7679L26.394 38.7177L26.2995 38.6666L26.2054 38.6144L26.1118 38.5613L26.0185 38.5071L25.9258 38.452L25.8336 38.396L25.7419 38.3389L25.6506 38.2808L25.5598 38.2219L25.4695 38.1618L25.3798 38.1009L25.2908 38.039L25.2021 37.9761L25.114 37.9124L25.0265 37.8476L24.9396 37.7819L24.8534 37.7154L24.7676 37.6478L24.6826 37.5793L24.598 37.51L24.5142 37.4397L24.431 37.3685L24.3485 37.2963L24.2666 37.2234L24.1854 37.1495L24.1049 37.0747L24.025 36.9991L23.9459 36.9226L23.8674 36.8452L23.7898 36.767L23.7129 36.6879L23.6366 36.6079L23.5611 36.5272L23.4864 36.4455L23.4126 36.3631L23.3393 36.2799L23.2671 36.1958L23.1954 36.111L23.1246 36.0253L23.0548 35.9387L22.9857 35.8516L22.9174 35.7636L22.8499 35.6748L22.7833 35.5852L22.7177 35.4949L22.6529 35.4039L22.5889 35.312L22.5258 35.2195L22.4636 35.1264L22.4024 35.0324L22.3421 34.9377L22.2826 34.8424L22.2241 34.7465L22.1665 34.6497L22.1099 34.5524L22.0543 34.4543L21.9996 34.3556L21.9458 34.2563L21.8931 34.1564L21.8413 34.0557L21.7905 33.9546L21.7407 33.8529L21.692 33.7504L21.6442 33.6475L21.5974 33.5439L21.5518 33.4398L21.5071 33.3351L21.4634 33.2299L21.4208 33.1241L21.3793 33.0179L21.3388 32.911L21.2995 32.8037L21.2612 32.6959L21.2239 32.5877L21.1877 32.4789L21.1527 32.3696L21.1188 32.2599L21.0859 32.1499L21.0541 32.0392L21.0235 31.9282L20.9941 31.8168L20.9656 31.705L20.9384 31.5928L20.9123 31.4803L20.8873 31.3673L20.8635 31.254L20.8408 31.1403L20.8193 31.0264L20.7989 30.9121L20.7797 30.7974L20.7618 30.6826L20.7449 30.5673L20.7292 30.4519L20.7148 30.3361L20.7015 30.2201L20.6894 30.1038L20.6784 29.9873L20.6687 29.8706L20.6602 29.7537L20.6529 29.6366L20.6468 29.5193L20.6418 29.4019L20.6381 29.2842L20.6357 29.1664L20.6345 29.0486L20.6344 28.9305L20.6356 28.8123L20.6381 28.6941L20.6417 28.5758L20.6466 28.4573L20.6528 28.3389L20.6601 28.2204L20.6686 28.1018L20.6784 27.9832L20.6895 27.8646L20.7017 27.746L20.7153 27.6274L20.7301 27.5088L20.7461 27.3903L20.7634 27.2718L20.7819 27.1534L20.8017 27.035L20.8226 26.9167L20.8448 26.7985L20.8684 26.6804L20.8932 26.5625L20.9191 26.4447L20.9463 26.327L20.9748 26.2096L21.0044 26.0922L21.0354 25.9751L21.0677 25.8582L21.1011 25.7415L21.1357 25.6249L21.1716 25.5086L21.2088 25.3926L21.2471 25.2768L21.2868 25.1614L21.3276 25.0461L21.3697 24.9312L21.413 24.8166L21.4575 24.7024L21.5033 24.5884L21.5503 24.4748L21.5985 24.3616L21.6479 24.2488L21.6986 24.1363L21.7504 24.0242L21.8035 23.9125L21.8577 23.8014L21.9132 23.6905L21.9698 23.5801L22.0277 23.4703L22.0866 23.3609L22.1469 23.252L22.2083 23.1435L22.2709 23.0356L22.3346 22.9283L22.3996 22.8214L22.4656 22.715L22.533 22.6093L22.6014 22.5041L22.6709 22.3994L22.7415 22.2955L22.8134 22.192L22.8864 22.0893L22.9605 21.9872L23.0357 21.8856L23.112 21.7847L23.1895 21.6846L23.268 21.5851L23.3477 21.4863L23.4285 21.388L23.5103 21.2907L23.5932 21.194L23.6772 21.098L23.7622 21.0028L23.8484 20.9083L23.9356 20.8147L24.0238 20.7218L24.1131 20.6297L24.2034 20.5384L24.2947 20.4479L24.3871 20.3582L24.4804 20.2694L24.5748 20.1814L24.6701 20.0942L24.7663 20.0079L24.8636 19.9225L24.962 19.8381L25.0611 19.7544L25.1614 19.6717L25.2624 19.59L25.3645 19.509L25.4674 19.4292L25.5714 19.3502L25.6761 19.2722L25.7818 19.1952L25.8884 19.1192L25.9959 19.0441L26.1042 18.9699L26.2135 18.8969L26.3234 18.8249L26.4343 18.7539L26.5461 18.6839L26.6586 18.6149L26.772 18.547L26.8861 18.4802L27.0011 18.4145L27.1168 18.3498L27.2333 18.2861L27.3505 18.2237L27.4685 18.1624L27.5872 18.1021L27.7066 18.043L27.8268 17.9849L27.9477 17.9281L28.0692 17.8723L28.1914 17.8177L28.3143 17.7644L28.4379 17.712L28.5621 17.6609L28.6868 17.6111L28.8124 17.5624L28.9384 17.5149L29.065 17.4686L29.1923 17.4236L29.3202 17.3797L29.4485 17.3371L29.5775 17.2957L29.7069 17.2555L29.8369 17.2166L29.9674 17.1789L30.0984 17.1426L30.2299 17.1074L30.3618 17.0735L30.4942 17.0409L30.6271 17.0096L30.7604 16.9797L30.8941 16.9509L31.0283 16.9235L31.1627 16.8974L31.2302 16.8849ZM32.8833 26.5492L31.3491 26.9158L31.259 19.3158L31.1867 19.332L31.0778 19.3577L30.969 19.3845L30.8611 19.4121L30.7533 19.4409L30.6461 19.4707L30.539 19.5017L30.4329 19.5334L30.3265 19.5664L30.2215 19.6001L30.1162 19.6351L30.0116 19.671L29.9075 19.7079L29.8038 19.7457L29.701 19.7845L29.5984 19.8244L29.4963 19.8651L29.3949 19.9068L29.2936 19.9496L29.1936 19.993L29.0936 20.0378L28.9946 20.0832L28.8957 20.1297L28.7977 20.177L28.7 20.2253L28.6034 20.2744L28.5071 20.3245L28.4116 20.3755L28.3167 20.4272L28.2223 20.48L28.1286 20.5336L28.0359 20.5879L27.9431 20.6434L27.8516 20.6995L27.7608 20.7564L27.6705 20.8142L27.5808 20.8729L27.492 20.9324L27.4039 20.9927L27.3165 21.0537L27.2299 21.1154L27.1438 21.1781L27.0586 21.2416L26.9742 21.3058L26.8905 21.3707L26.8077 21.4362L26.7257 21.5027L26.6442 21.5699L26.5636 21.6379L26.484 21.7063L26.405 21.7757L26.3269 21.8456L26.2496 21.9162L26.173 21.9877L26.0974 22.0597L26.0226 22.1323L25.9485 22.2058L25.8754 22.2796L25.8031 22.3543L25.7318 22.4294L25.6609 22.5055L25.5913 22.5818L25.5225 22.6589L25.4545 22.7366L25.3875 22.8146L25.3212 22.8935L25.2562 22.9726L25.1916 23.0527L25.1282 23.133L25.0655 23.2141L25.0039 23.2957L24.9432 23.3775L24.8833 23.4599L24.8245 23.5429L24.7664 23.6265L24.7093 23.7103L24.6533 23.7948L24.5982 23.8795L24.544 23.9647L24.4906 24.0505L24.4384 24.1365L24.3869 24.2233L24.3366 24.31L24.2871 24.3974L24.2385 24.4852L24.1911 24.5731L24.1445 24.6615L24.099 24.7503L24.0543 24.8396L24.0108 24.9288L23.968 25.0188L23.9264 25.1088L23.8858 25.1992L23.846 25.2898L23.8072 25.3809L23.7696 25.4719L23.7328 25.5635L23.6971 25.6552L23.6623 25.7472L23.6286 25.8392L23.5958 25.9317L23.564 26.0243L23.5333 26.1171L23.5035 26.21L23.4747 26.3033L23.4469 26.3966L23.4203 26.4899L23.3945 26.5837L23.3696 26.6775L23.3459 26.7713L23.3231 26.8653L23.3013 26.9594L23.2805 27.0537L23.2608 27.1481L23.242 27.2423L23.2242 27.3367L23.2074 27.4313L23.1917 27.5257L23.1769 27.6202L23.1631 27.715L23.1503 27.8094L23.1386 27.9041L23.1278 27.9985L23.118 28.0931L23.1092 28.1879L23.1013 28.2823L23.0946 28.3768L23.0887 28.4713L23.0838 28.5656L23.0799 28.6598L23.077 28.7539L23.0751 28.8482L23.0741 28.9421L23.0742 29.036L23.0751 29.1297L23.0771 29.2234L23.08 29.3168L23.0839 29.4102L23.0887 29.5033L23.0946 29.5962L23.1013 29.689L23.1091 29.7817L23.1177 29.874L23.1273 29.9664L23.1378 30.0581L23.1493 30.1501L23.1616 30.2414L23.1751 30.3329L23.1893 30.4238L23.2045 30.5146L23.2206 30.6052L23.2376 30.6953L23.2556 30.7853L23.2744 30.8748L23.2942 30.9642L23.3149 31.0531L23.3364 31.1419L23.3588 31.2301L23.3822 31.3183L23.4063 31.4058L23.4313 31.4932L23.4573 31.58L23.484 31.6667L23.5117 31.7528L23.5402 31.8384L23.5696 31.924L23.5998 32.0089L23.6309 32.0933L23.6627 32.1775L23.6954 32.2613L23.729 32.3445L23.7633 32.4273L23.7983 32.5095L23.8344 32.5915L23.8711 32.673L23.9087 32.7539L23.947 32.8343L23.986 32.9142L24.0261 32.9939L24.0665 33.0727L24.1079 33.1511L24.1501 33.2291L24.1931 33.3065L24.2368 33.3834L24.2811 33.4598L24.3262 33.5354L24.3722 33.6108L24.4186 33.6854L24.4659 33.7594L24.5139 33.833L24.5625 33.906L24.6119 33.9785L24.6618 34.05L24.7125 34.1214L24.7639 34.1919L24.8158 34.2618L24.8687 34.3313L24.9219 34.4L24.9758 34.468L25.0304 34.5355L25.0856 34.6024L25.1413 34.6685L25.1978 34.7341L25.2548 34.799L25.3123 34.8632L25.3708 34.9268L25.4293 34.9895L25.4887 35.052L25.5486 35.1134L25.6089 35.1743L25.67 35.2345L25.7315 35.2939L25.7935 35.3528L25.8561 35.4108L25.9192 35.4682L25.9828 35.5249L26.0468 35.5808L26.1114 35.636L26.1764 35.6906L26.2418 35.7444L26.3079 35.7975L26.3744 35.8498L26.4411 35.9013L26.5085 35.9522L26.5762 36.0024L26.6444 36.0518L26.7129 36.1003L26.7819 36.1483L26.8512 36.1954L26.921 36.2417L26.991 36.2872L27.0614 36.3321L27.1325 36.3763L27.2036 36.4194L27.2751 36.462L27.3471 36.5038L27.4191 36.5447L27.4915 36.5849L27.5646 36.6244L27.6377 36.663L27.711 36.7008L27.7846 36.7378L27.8587 36.7741L27.9328 36.8096L28.0074 36.8443L28.0821 36.8782L28.1569 36.9113L28.2323 36.9436L28.3077 36.9751L28.3832 37.0059L28.4591 37.0358L28.5351 37.0649L28.6115 37.0932L28.6876 37.1208L28.7644 37.1475L28.841 37.1734L28.9178 37.1985L28.9949 37.2229L29.0721 37.2464L29.1493 37.2691L29.2266 37.291L29.3042 37.3121L29.3818 37.3324L29.4594 37.3519L29.5372 37.3706L29.6149 37.3885L29.6928 37.4055L29.7708 37.4219L29.8488 37.4373L29.9268 37.4521L30.0048 37.4659L30.0829 37.4791L30.161 37.4914L30.2392 37.5029L30.3171 37.5136L30.3952 37.5234L30.4732 37.5326L30.5513 37.541L30.6293 37.5485L30.7073 37.5552L30.7852 37.5612L30.8629 37.5664L30.9408 37.5708L31.0184 37.5744L31.0959 37.5773L31.1736 37.5793L31.2508 37.5807L31.328 37.5812L31.4052 37.5809L31.4822 37.58L31.5592 37.5781L31.6361 37.5756L31.7125 37.5724L31.7889 37.5683L31.8654 37.5635L31.9413 37.5579L32.0173 37.5517L32.0929 37.5446L32.1685 37.5369L32.2438 37.5282L32.3188 37.519L32.3939 37.5091L32.4684 37.4983L32.5427 37.4868L32.6171 37.4747L32.691 37.4618L32.7646 37.4482L32.8381 37.4339L32.9113 37.4188L32.9839 37.4031L33.0564 37.3867L33.1288 37.3696L33.2008 37.3517L33.2724 37.3334L33.3437 37.3142L33.4147 37.2943L33.4856 37.2737L33.5559 37.2526L33.6257 37.2307L33.6957 37.2081L33.7649 37.1849L33.8339 37.1612L33.9024 37.1367L33.9706 37.1116L34.0386 37.0858L34.1061 37.0594L34.173 37.0324L34.2397 37.0048L34.306 36.9765L34.372 36.9476L34.4373 36.9182L34.5025 36.8881L34.567 36.8575L34.6311 36.8262L34.695 36.7944L34.7581 36.762L34.821 36.729L34.8834 36.6954L34.9453 36.6613L35.0067 36.6267L35.0678 36.5914L35.1284 36.5556L35.1883 36.5192L35.2478 36.4824L35.3069 36.445L35.3654 36.4072L35.4236 36.3687L35.4811 36.3298L35.5382 36.2903L35.5948 36.2504L35.6507 36.21L35.7062 36.169L35.7612 36.1276L35.8156 36.0857L35.8695 36.0434L35.923 36.0005L35.9758 35.9574L36.0281 35.9137L36.0797 35.8695L36.1308 35.8249L36.1816 35.7799L36.2316 35.7344L36.2811 35.6886L36.3298 35.6424L36.3783 35.5957L36.4261 35.5486L36.4733 35.5012L36.5199 35.4534L36.5658 35.4051L36.6112 35.3566L36.6562 35.3075L36.7003 35.2584L36.7441 35.2086L36.7871 35.1586L36.8294 35.1084L36.8715 35.0575L36.9125 35.0067L36.9532 34.9553L36.9933 34.9038L37.0325 34.8519L37.0714 34.7996L37.1095 34.7473L37.147 34.6943L37.184 34.6412L37.2202 34.5881L37.2559 34.5343L37.291 34.4805L37.3252 34.4265L37.3591 34.3722L37.3922 34.3176L37.4247 34.2627L37.4566 34.2078L37.4878 34.1525L37.5184 34.0971L37.5483 34.0414L37.5776 33.9857L37.6062 33.9297L37.6343 33.8735L37.6618 33.8172L37.6885 33.7605L37.7146 33.7039L37.74 33.6471L37.7648 33.5903L37.789 33.533L37.8124 33.4759L37.8355 33.4183L37.8576 33.3612L37.8793 33.3031L37.9 33.246L37.9204 33.188L37.9401 33.13L37.959 33.0722L37.9774 33.0141L37.9951 32.9562L38.0122 32.8977L38.0285 32.8399L38.0444 32.7812L38.0595 32.7234L38.074 32.6649L38.0878 32.6063L38.101 32.5481L38.1135 32.4901L38.1255 32.4312L38.1368 32.3731L38.1475 32.3144L38.1575 32.2563L38.1669 32.198L38.1757 32.1396L38.1838 32.0812L38.1913 32.0229L38.1982 31.9648L38.2044 31.9069L38.21 31.8485L38.2151 31.7906L38.2195 31.7325L38.2232 31.6746L38.2264 31.6169L38.2289 31.5592L38.2308 31.5019L38.2321 31.4441L38.2329 31.3865L38.2331 31.3294L38.2325 31.2722L38.2315 31.2153L38.2297 31.1584L38.2275 31.1013L38.2245 31.0453L38.2211 30.9881L38.2171 30.9323L38.2124 30.8762L38.2072 30.8198L38.2014 30.764L38.1951 30.7088L38.1881 30.6527L38.1806 30.5979L38.1725 30.5427L38.164 30.4882L38.1547 30.4332L38.1449 30.3787L38.1347 30.3246L38.1239 30.2707L38.1125 30.2167L38.1005 30.1633L38.0881 30.1099L38.0751 30.0569L38.0616 30.0044L38.0474 29.9514L38.033 29.8995L38.0178 29.847L38.0023 29.7955L37.9861 29.744L37.9695 29.6929L37.9523 29.6419L37.9346 29.591L37.9167 29.541L37.898 29.4911L37.8789 29.441L37.8593 29.3918L37.8392 29.3423L37.8188 29.2939L37.7977 29.2451L37.7764 29.197L37.7544 29.1494L37.732 29.1017L37.7093 29.0546L37.686 29.0078L37.6623 28.9612L37.6382 28.9151L37.6136 28.8693L37.5887 28.8239L37.5632 28.7788L37.5373 28.7341L37.5112 28.6898L37.4846 28.6458L37.4574 28.602L37.43 28.559L37.4022 28.5162L37.374 28.4737L37.3453 28.4315L37.3165 28.39L37.287 28.3486L37.2574 28.3077L37.2273 28.2673L37.1968 28.2272L37.1662 28.1875L37.1349 28.1481L37.1035 28.1094L37.0717 28.0709L37.0396 28.0328L37.0071 27.9952L36.9745 27.958L36.9414 27.9213L36.9079 27.885L36.8743 27.8489L36.8403 27.8135L36.806 27.7785L36.7714 27.7437L36.7366 27.7097L36.7015 27.676L36.6662 27.6427L36.6303 27.6097L36.5946 27.5773L36.5584 27.5453L36.522 27.5138L36.4853 27.4827L36.4484 27.4522L36.4113 27.422L36.374 27.3923L36.3365 27.363L36.2987 27.3341L36.2608 27.3059L36.2225 27.278L36.1841 27.2505L36.1456 27.2237L36.1069 27.197L36.068 27.1711L36.0289 27.1455L35.9895 27.1204L35.9502 27.0957L35.9104 27.0715L35.8707 27.0478L35.8309 27.0247L35.7909 27.0019L35.7505 26.9795L35.7103 26.9577L35.67 26.9363L35.6294 26.9154L35.5889 26.895L35.5479 26.8749L35.5072 26.8555L35.4662 26.8366L35.4252 26.8179L35.3841 26.7998L35.3427 26.7821L35.3017 26.7651L35.2602 26.7485L35.2186 26.7322L35.1772 26.7165L35.1357 26.7012L35.0942 26.6864L35.0525 26.672L35.0108 26.6581L34.9693 26.6448L34.9275 26.6317L34.8857 26.6192L34.8442 26.6072L34.8021 26.5956L34.7606 26.5846L34.7188 26.5739L34.677 26.5637L34.6352 26.554L34.5935 26.5447L34.5517 26.5359L34.5101 26.5275L34.4685 26.5195L34.427 26.512L34.3852 26.505L34.3439 26.4985L34.3021 26.4923L34.261 26.4866L34.2195 26.4813L34.1782 26.4765L34.1372 26.4721L34.096 26.4683L34.055 26.4647L34.014 26.4616L33.9731 26.4589L33.9322 26.4567L33.8915 26.4549L33.8512 26.4536L33.8106 26.4525L33.7702 26.452L33.7299 26.4519L33.6898 26.4523L33.6498 26.4529L33.61 26.454L33.5702 26.4556L33.5308 26.4575L33.4911 26.4599L33.452 26.4625L33.4128 26.4656L33.3738 26.4692L33.3351 26.473L33.2962 26.4773L33.2579 26.482L33.2196 26.487L33.1815 26.4925L33.1434 26.4983L33.1057 26.5045L33.0681 26.511L33.0309 26.5179L32.9935 26.5252L32.9567 26.5328L32.9198 26.5408L32.8833 26.5492Z" fill="#C4C4C4"/>
</g>
<defs>
<clipPath id="clip0_1_786">
<rect width="149" height="65" fill="white" transform="translate(0.169983)"/>
</clipPath>
</defs>
</svg>
